<svg xmlns="http://www.w3.org/2000/svg" xmlns:xlink="http://www.w3.org/1999/xlink" width="500" zoomAndPan="magnify" viewBox="0 0 375 187.499995" height="250" preserveAspectRatio="xMidYMid meet" version="1.0"><defs><g/><clipPath id="eeeb2dede3"><path d="M 26.742188 42.261719 L 129.21875 42.261719 L 129.21875 144.738281 L 26.742188 144.738281 Z M 26.742188 42.261719 " clip-rule="nonzero"/></clipPath></defs><g clip-path="url(#eeeb2dede3)"><path fill="#ffffff" d="M 50.234375 131.449219 L 50.503906 130 L 48.734375 129.765625 L 48.953125 128.582031 L 47.113281 128.3125 L 46.828125 129.78125 L 48.582031 130.085938 L 48.394531 131.214844 Z M 42.609375 124.453125 C 43.066406 124.636719 43.722656 124.519531 44.0625 124.265625 C 44.585938 123.894531 44.433594 123.507812 44.128906 123.152344 C 43.742188 122.730469 42.863281 122.816406 42.511719 122.480469 C 42.308594 122.277344 43.050781 122.109375 42.511719 121.484375 C 42.039062 120.925781 41.027344 121.230469 40.585938 121.46875 C 40.285156 121.617188 40.214844 121.769531 40.265625 121.855469 C 40.6875 122.257812 41.617188 121.921875 41.886719 122.359375 C 42.003906 122.546875 41.347656 122.933594 41.378906 123.050781 C 41.851562 123.558594 42.832031 123.253906 43.132812 123.761719 C 43.335938 124.082031 42.527344 124.316406 42.609375 124.453125 Z M 31.75 106.089844 L 32.78125 104.824219 L 31.464844 103.742188 L 30.4375 105.042969 Z M 34.332031 106.847656 L 35.292969 105.71875 L 33.84375 104.621094 L 34.636719 103.726562 L 33.167969 102.582031 L 32.207031 103.695312 L 33.589844 104.839844 L 32.847656 105.71875 Z M 56.792969 129.730469 C 57.148438 129.714844 57.027344 129.375 56.792969 129.273438 C 56.472656 129.171875 55.125 128.820312 54.3125 128.632812 C 50.488281 120.859375 46.945312 119.78125 44.734375 117.742188 C 44.347656 117.371094 44.9375 116.324219 44.601562 115.785156 C 44.230469 115.160156 42.359375 114.65625 42.089844 114.164062 C 41.917969 113.84375 42.191406 112.917969 41.96875 112.480469 C 41.550781 111.6875 40.925781 111.769531 40.789062 111.46875 C 40.722656 111.347656 40.757812 111.28125 40.890625 111.0625 C 41.109375 110.742188 41.128906 110.421875 41.09375 110.066406 C 41.058594 109.527344 40.722656 109.089844 40.4375 108.683594 C 40.234375 108.414062 39.171875 107.269531 38.953125 106.878906 C 38.933594 106.796875 39.476562 106.324219 39.304688 105.648438 C 39.289062 105.582031 39.238281 105.53125 39.1875 105.464844 C 38.800781 104.976562 37.722656 104.015625 37.484375 103.660156 C 37.433594 103.609375 37.90625 102.730469 37.890625 102.546875 C 37.890625 102.378906 37.839844 102.226562 37.773438 102.089844 C 37.621094 101.769531 37.082031 101.671875 36.808594 101.449219 C 36.980469 100.894531 37.148438 100.40625 37.046875 99.917969 C 36.84375 99.039062 35.867188 97.859375 34.585938 97.757812 C 34.484375 97.757812 30.789062 97.402344 30.234375 97.386719 C 29.644531 97.386719 30.21875 98.128906 30.808594 98.652344 C 31.128906 98.90625 31.820312 98.90625 35.054688 99.207031 C 35.359375 99.257812 35.578125 99.546875 35.730469 99.867188 C 36.070312 100.65625 35.445312 101.027344 35.425781 101.113281 C 35.410156 101.199219 35.460938 101.25 35.496094 101.332031 C 35.699219 101.671875 36.355469 102.058594 36.523438 102.34375 C 36.660156 102.582031 36.558594 102.917969 36.355469 103.101562 C 36.152344 103.289062 35.847656 103.304688 36.019531 103.574219 C 36.421875 104.214844 37.179688 104.433594 37.453125 105.109375 C 37.5 105.246094 37.453125 105.480469 37.265625 105.632812 C 36.757812 106.039062 36.878906 106.273438 37.332031 106.746094 C 37.535156 106.964844 38.34375 107.65625 38.683594 108.113281 C 39.136719 108.683594 39.425781 109.425781 39.1875 110.1875 C 38.765625 110.050781 38.480469 110 38.242188 110 C 37.855469 110.015625 37.753906 110 37.417969 110.203125 C 36.828125 110.589844 36.472656 111.28125 36.539062 111.941406 C 36.558594 112.191406 36.660156 112.730469 36.929688 113.203125 C 37.550781 114.25 38.023438 114.554688 38.511719 114.773438 C 38.902344 114.941406 39.238281 114.789062 39.273438 114.285156 C 39.304688 113.574219 39.289062 113.171875 39.59375 112.96875 C 39.828125 112.816406 40.183594 113.050781 40.265625 113.203125 C 40.585938 113.761719 40.167969 114.453125 40.46875 114.941406 C 40.859375 115.546875 41.226562 115.414062 42.140625 115.734375 C 42.273438 115.785156 43.183594 116.308594 43.371094 116.660156 C 43.722656 117.300781 42.644531 117.722656 42.898438 118.230469 C 43.015625 118.480469 43.285156 118.71875 43.386719 118.785156 C 46.371094 120.707031 50.738281 124.671875 52.070312 129.222656 C 52.140625 129.441406 52.257812 129.746094 52.578125 129.714844 C 54.246094 129.746094 55.324219 129.796875 56.792969 129.730469 Z M 52.964844 120.386719 L 53.335938 118.972656 L 51.582031 118.566406 L 51.902344 117.421875 L 50.097656 117 L 49.695312 118.433594 L 51.414062 118.871094 L 51.128906 119.984375 Z M 45.816406 113.273438 L 46.710938 111.90625 L 45.308594 110.945312 L 44.414062 112.34375 Z M 37.230469 94.605469 C 36.878906 93.964844 35.898438 93.390625 35.308594 93.324219 C 34.128906 93.171875 33.371094 93.253906 32.257812 93.121094 C 31.871094 93.085938 31.414062 92.867188 31.078125 92.765625 C 30.722656 92.683594 30.6875 93.019531 31.007812 93.289062 C 31.414062 93.644531 32.410156 94.265625 33.132812 94.386719 C 34.535156 94.621094 35.867188 94.535156 37.230469 94.605469 Z M 31.683594 85.53125 L 33.132812 85.277344 L 32.746094 83.507812 L 33.910156 83.304688 L 33.539062 81.519531 L 32.070312 81.738281 L 32.425781 83.507812 L 31.261719 83.695312 Z M 37.957031 89.796875 C 38.140625 89.933594 38.414062 89.714844 38.261719 89.496094 C 37.789062 88.835938 37.367188 88.28125 37.164062 87.4375 C 40.890625 83.390625 41.195312 79.984375 41.398438 73.914062 C 43.203125 74.789062 44.667969 72.125 44.484375 69.816406 C 44.332031 67.945312 42.832031 65.464844 41.71875 66.613281 C 40.890625 67.472656 40.859375 68.636719 41.566406 70.371094 C 41.179688 69.796875 40.957031 69.5625 40.738281 69.34375 L 38.464844 67.117188 C 38.3125 66.914062 38.074219 67.066406 38.058594 67.304688 C 38.496094 68.367188 38.546875 68.535156 39.273438 69.257812 C 39.929688 69.898438 40.90625 70.539062 41.800781 71.230469 C 42.390625 72.226562 40.941406 73.035156 40.132812 72.429688 C 40.234375 76.492188 39.863281 81.25 35.511719 85.769531 C 35.460938 85.820312 35.394531 85.851562 35.378906 85.9375 C 35.359375 86.039062 35.378906 86.070312 35.410156 86.15625 C 36.070312 87.671875 36.945312 88.585938 37.957031 89.796875 Z M 43.152344 80 L 44.617188 79.730469 L 44.230469 77.976562 L 45.410156 77.773438 L 45.003906 75.988281 L 43.554688 76.207031 L 43.894531 77.976562 L 42.746094 78.164062 Z M 42.882812 71.519531 C 42.492188 70.625 41.953125 69.527344 41.988281 68.652344 C 42.019531 68.144531 42.410156 67.589844 42.832031 67.808594 C 43.101562 67.945312 43.523438 68.667969 43.453125 69.359375 C 43.421875 69.78125 43.203125 70.675781 42.882812 71.519531 Z M 106.269531 130.84375 C 106.554688 130.101562 106.269531 129.121094 106.203125 128.75 C 106 127.738281 103.082031 123.980469 102.355469 122.851562 C 102.207031 123.421875 102.273438 124.082031 102.441406 124.855469 C 102.625 125.683594 105.339844 129.5625 106.269531 130.84375 Z M 105.730469 122.175781 L 106.015625 120.507812 L 104.363281 120.253906 L 104.109375 121.921875 Z M 108.699219 131.179688 C 108.917969 131.316406 109 130.976562 109.035156 130.757812 C 109.070312 130.523438 109.117188 130.253906 109.152344 130.101562 C 109.238281 129.613281 109.558594 129.039062 109.777344 128.550781 C 110.03125 127.976562 110.671875 127.148438 111.058594 126.609375 C 111.394531 126.105469 111.851562 125.714844 112.203125 124.875 C 112.476562 124.214844 112.425781 121.667969 111.597656 121.265625 C 111.363281 121.164062 110.601562 122.765625 109.980469 123.070312 C 109.996094 122.832031 109.960938 122.628906 110.046875 121.9375 L 108.898438 121.519531 C 108.816406 121.9375 108.679688 123.777344 108.664062 123.894531 C 108.613281 124.265625 108.5625 125.378906 108.5625 125.785156 C 108.5625 126.054688 109.761719 125.007812 110.097656 124.671875 L 110.519531 124.234375 C 110.652344 124.332031 110.519531 124.703125 110.402344 124.855469 C 109.507812 126.054688 108.277344 128.429688 108.476562 130.457031 C 108.496094 130.65625 108.5625 131.113281 108.699219 131.179688 Z M 47.351562 64.941406 C 47.535156 64.367188 47.214844 63.375 46.792969 62.96875 L 44.636719 60.863281 C 44.347656 60.574219 44.195312 60.1875 43.992188 59.898438 C 43.808594 59.613281 43.539062 59.800781 43.605469 60.152344 C 43.671875 60.640625 43.945312 61.652344 44.414062 62.175781 C 45.328125 63.207031 46.371094 64.03125 47.351562 64.941406 Z M 110.046875 121.9375 C 110.214844 120.808594 110.265625 119.714844 110.316406 118.820312 C 110.351562 118.210938 110.402344 117.132812 110.652344 116.476562 C 111.851562 117.453125 112.609375 117.742188 113.066406 117.066406 C 113.4375 116.492188 113.808594 115.160156 113.671875 114.113281 L 113.636719 113.84375 C 114.378906 114.285156 115.476562 114.46875 115.980469 113.742188 C 116.335938 113.203125 116.320312 111.789062 116.152344 111.28125 C 115.847656 110.269531 115.390625 109.714844 114.96875 109.511719 C 114.582031 109.308594 113.957031 109.394531 113.25 110.1875 C 112.996094 109.222656 113.03125 107.488281 113.335938 106.507812 C 113.488281 106.054688 114.027344 104.976562 113.875 104.738281 C 113.636719 104.316406 111.699219 106.730469 111.546875 107.183594 C 111.3125 107.824219 111.496094 107.910156 112.355469 111.636719 C 112.457031 112.023438 112.964844 114.382812 112.40625 114.875 C 112.1875 115.074219 111.785156 114.773438 111.144531 114.402344 C 111.007812 113.964844 110.855469 113.152344 110.722656 112.613281 C 110.671875 112.394531 110.46875 112.058594 110.300781 112.125 C 110.199219 112.160156 110.097656 112.277344 109.828125 112.765625 C 109.625 113.121094 109.457031 114.0625 109.40625 115.109375 C 109.320312 116.8125 109.488281 117.925781 109.167969 118.195312 C 108.933594 118.398438 108.699219 118.433594 108.257812 118.550781 C 107.046875 118.871094 106.640625 120.640625 107.769531 120.875 C 108.125 120.960938 108.578125 120.554688 108.898438 120.640625 C 109.070312 120.691406 108.96875 121.230469 108.898438 121.519531 Z M 47.769531 67.691406 C 48.765625 67.371094 50.25 66.8125 51.027344 66.207031 C 51.464844 65.851562 51.464844 63.863281 51.515625 62.597656 C 55.816406 61.519531 58.613281 60.136719 60.738281 59.109375 C 62.410156 58.316406 63.707031 57.523438 64.886719 56.542969 C 66.371094 55.332031 68.917969 53.476562 69.40625 52.953125 C 69.726562 52.632812 70.015625 52.394531 70.402344 52.277344 C 70.875 52.144531 71.429688 53.425781 72.441406 53.003906 C 73.183594 52.699219 73.570312 52.160156 73.605469 51.636719 C 73.640625 51.300781 73.46875 50.980469 73.183594 50.777344 C 73.03125 50.691406 72.746094 50.589844 72.558594 50.355469 C 72.390625 50.171875 72.542969 49.933594 72.710938 49.664062 C 73.066406 49.074219 73.773438 48.617188 74.179688 48.636719 C 74.753906 48.6875 75.039062 49.308594 75.542969 48.957031 C 75.78125 48.804688 76.117188 48.449219 76.335938 47.875 C 76.386719 47.757812 76.355469 47.371094 76.035156 47.183594 C 75.78125 47.050781 75.257812 46.796875 74.886719 46.882812 C 74.195312 47 73.707031 47.386719 72.980469 47.960938 C 71.886719 48.839844 70.90625 49.75 70.519531 51.0625 C 69.929688 51.183594 69.019531 52.109375 68.699219 52.378906 C 68.613281 52.445312 68.226562 52.699219 68.160156 52.714844 C 68.210938 52.363281 68.175781 51.652344 68.125 51.402344 C 68.058594 51.183594 67.988281 51.011719 67.871094 50.84375 C 67.519531 50.339844 67.027344 50.101562 66.421875 50.203125 C 66.203125 50.253906 66.050781 50.320312 65.847656 50.472656 C 64.972656 51.148438 64.433594 52.125 64.296875 52.851562 C 64.195312 53.441406 64.332031 54.269531 64.855469 54.6875 C 64.328125 55.109375 63.769531 55.488281 63.183594 55.820312 C 60.066406 57.574219 55.882812 59.394531 51.226562 59.949219 C 50.890625 60 50.738281 60.304688 50.707031 60.574219 C 50.265625 64.554688 50.839844 65.179688 47.652344 67.488281 Z M 58.378906 54.097656 L 58.953125 52.34375 L 60.046875 52.785156 L 60.621094 51.011719 L 59.253906 50.492188 L 58.648438 52.210938 L 57.550781 51.773438 L 56.996094 53.558594 Z M 118.226562 110.035156 C 118.679688 110.605469 119.085938 110.1875 118.746094 109.679688 C 118.039062 108.601562 117.601562 107.65625 117.296875 107.050781 C 116.792969 106.089844 116.554688 103.660156 116.402344 101.820312 C 116.386719 101.570312 116.203125 101.417969 115.949219 102.109375 C 115.410156 103.507812 115.089844 104.65625 115.191406 105.917969 C 115.257812 106.828125 115.476562 106.710938 118.226562 110.035156 Z M 65.628906 53.375 C 65.425781 53.121094 65.578125 52.683594 66.015625 52.480469 C 66.40625 52.296875 67.128906 53.085938 67.027344 53.257812 C 66.792969 53.59375 65.816406 53.644531 65.628906 53.375 Z M 113.671875 100.507812 L 115.019531 99.5625 L 114.027344 98.214844 L 115.089844 97.453125 L 114.078125 96.089844 L 112.777344 96.980469 L 113.738281 98.382812 L 112.695312 99.054688 Z M 72.070312 58.417969 L 72.863281 56.796875 L 73.890625 57.4375 L 74.683594 55.800781 L 73.402344 54.992188 L 72.59375 56.578125 L 71.566406 55.9375 L 70.789062 57.589844 Z M 120.316406 103.339844 C 120.46875 103.085938 119.320312 101.519531 119.253906 101.113281 C 119.167969 100.726562 119.320312 100.320312 119.507812 100.085938 C 119.660156 99.867188 120.25 99.375 120.382812 98.90625 C 120.585938 98.28125 119.910156 97.234375 119.386719 96.710938 C 119.269531 96.59375 118.445312 95.769531 118.140625 95.546875 C 118.054688 95.496094 117.886719 95.480469 117.835938 95.53125 C 117.433594 95.953125 118.933594 97.453125 118.375 97.960938 C 117.835938 98.449219 117.484375 98.734375 117.28125 99.023438 C 116.722656 99.78125 118.445312 101.890625 119.253906 102.664062 C 119.726562 103.121094 120.179688 103.574219 120.316406 103.339844 Z M 122.84375 103.136719 L 124.179688 102.160156 L 123.199219 100.828125 L 124.246094 100.050781 L 123.25 98.683594 L 121.917969 99.628906 L 122.894531 100.996094 L 121.832031 101.769531 Z M 115.140625 87.757812 L 116.285156 86.5625 L 115.054688 85.398438 L 113.910156 86.5625 Z M 124.414062 93.273438 C 124.160156 92.511719 123.265625 92.007812 122.980469 91.789062 C 122.121094 91.164062 117.515625 90.117188 116.269531 89.730469 C 116.503906 90.269531 117.011719 90.660156 117.636719 91.148438 C 118.308594 91.652344 124.128906 93.375 124.414062 93.273438 Z M 81.683594 55.617188 C 83.320312 55.988281 84.800781 53.847656 85.242188 52.816406 C 85.5625 52.109375 86.488281 49.648438 86.824219 48.585938 C 86.894531 48.382812 87.011719 48.0625 86.859375 48.046875 C 86.523438 48.027344 85.5625 48.804688 85.476562 49.140625 C 85.324219 49.664062 84.429688 52.296875 84.09375 53.238281 C 83.941406 53.644531 83.046875 53.746094 82.695312 53.675781 C 82.390625 53.609375 81.734375 53.476562 81.75 52.765625 C 81.765625 51.972656 82.660156 50.742188 82.390625 50.472656 C 82.339844 50.421875 82.289062 50.40625 82.207031 50.40625 C 82.070312 50.40625 81.867188 50.675781 81.496094 51.097656 C 80.941406 51.671875 80.65625 51.972656 80.183594 52.394531 C 79.390625 53.105469 77.90625 53.222656 77.011719 53.085938 C 76.910156 53.070312 76.859375 53.085938 76.828125 53.121094 C 76.742188 53.207031 76.910156 53.390625 77.148438 53.578125 C 77.585938 53.949219 78.359375 54.351562 78.816406 54.351562 C 79.222656 54.335938 79.863281 53.726562 80.804688 52.867188 C 80.382812 54 80.351562 55.296875 81.683594 55.617188 Z M 94.058594 62.058594 L 95.730469 61.722656 L 95.410156 60.136719 L 93.757812 60.421875 L 93.519531 59.160156 L 91.851562 59.496094 L 92.171875 61.113281 L 93.824219 60.777344 Z M 125.761719 90.742188 C 126.015625 90.675781 125.761719 90.371094 125.578125 90.21875 C 125.425781 90.066406 125.238281 89.847656 125.140625 89.695312 C 124.820312 89.242188 124.5 88.753906 124.246094 88.296875 C 123.941406 87.722656 123.585938 86.796875 123.351562 86.171875 C 123.148438 85.597656 123.066406 85.007812 122.59375 84.234375 C 122.238281 83.625 120.097656 82.226562 119.320312 82.664062 C 119.066406 82.800781 119.960938 84.335938 119.828125 85.027344 C 119.660156 84.890625 119.355469 84.535156 119.085938 84.167969 L 117.957031 85.007812 C 118.242188 85.328125 118.425781 85.53125 118.527344 85.617188 C 118.78125 85.871094 120.921875 87.792969 121.242188 87.722656 C 121.496094 87.671875 121.292969 86.324219 121.210938 85.851562 L 121.109375 85.246094 C 121.261719 85.226562 121.480469 85.515625 121.546875 85.699219 C 121.953125 87.117188 123.285156 89.476562 125.039062 90.488281 C 125.207031 90.589844 125.59375 90.808594 125.761719 90.742188 Z M 117.957031 85.007812 L 119.085938 84.167969 C 118.765625 83.726562 118.425781 83.253906 118.375 83.203125 C 115.644531 80.035156 114.144531 76.613281 114.042969 71.046875 C 114.042969 70.828125 114.058594 70.625 113.6875 70.589844 C 109.640625 70.101562 109.269531 69.527344 107.265625 66.628906 C 107.164062 66.476562 106.925781 66.628906 106.910156 66.863281 L 107.703125 69.984375 C 107.820312 70.421875 108.226562 71.011719 108.898438 71.0625 L 111.714844 71.300781 C 112.203125 75.429688 113.097656 78.433594 114.886719 81.097656 C 116.050781 82.800781 117.246094 84.234375 117.957031 85.007812 Z M 87.484375 54.605469 C 88.089844 54.519531 88.867188 53.796875 89.070312 53.257812 C 89.457031 52.175781 89.691406 51.433594 90.046875 50.421875 C 90.183594 50.050781 90.28125 49.648438 90.417969 49.359375 C 90.554688 49.023438 90.316406 48.921875 90.03125 49.089844 C 89.625 49.308594 89.121094 49.75 89 50.050781 C 88.140625 52.394531 87.886719 53.304688 87.484375 54.605469 Z M 97.097656 58.652344 C 98.125 58.820312 99.660156 58.28125 100.550781 57.824219 C 101.09375 57.554688 101.699219 57.304688 101.53125 57.082031 C 101.34375 56.847656 99.472656 57.386719 99.070312 57.320312 C 98.714844 57.253906 98.378906 56.984375 98.226562 56.746094 C 98.058594 56.492188 97.703125 56.054688 97.296875 55.785156 C 96.757812 55.398438 95.78125 55.75 95.121094 56.070312 C 94.972656 56.140625 93.890625 56.613281 93.621094 56.832031 C 93.539062 56.898438 93.4375 57.050781 93.46875 57.101562 C 93.808594 57.574219 95.375 56.460938 95.8125 57.050781 C 96.320312 57.742188 96.488281 58.113281 96.675781 58.367188 C 96.757812 58.484375 96.910156 58.617188 97.097656 58.652344 Z M 107.113281 63.746094 C 107.601562 63.8125 108.511719 63.761719 109.304688 63.339844 C 109.472656 63.257812 109.625 63.15625 109.792969 63.070312 C 109.960938 62.984375 110.03125 62.816406 109.980469 62.699219 C 109.910156 62.53125 109.625 62.546875 109.457031 62.597656 C 108.730469 62.835938 108.277344 63.003906 107.464844 62.429688 C 107.078125 62.144531 106.792969 61.839844 106.253906 61.90625 C 105.695312 61.992188 104.53125 62.175781 103.960938 62.277344 C 103.335938 62.363281 102.578125 62.394531 101.546875 61.722656 C 100.03125 60.742188 99.777344 60.675781 99.574219 60.828125 C 99.507812 60.878906 99.609375 61.199219 99.742188 61.367188 C 100.972656 62.851562 101.007812 63.238281 101.734375 63.339844 C 102.746094 63.492188 103.539062 62.902344 104.515625 62.902344 C 105.441406 62.902344 106.183594 63.625 107.113281 63.746094 Z M 97.367188 53.238281 L 98.949219 52.617188 L 98.378906 51.097656 L 96.792969 51.703125 L 96.355469 50.457031 L 94.769531 51.097656 L 95.34375 52.632812 L 96.925781 52.023438 Z M 111.261719 66.578125 C 112.289062 66.089844 112.996094 65.71875 113.941406 65.261719 C 114.3125 65.09375 114.683594 64.890625 114.96875 64.773438 C 115.324219 64.65625 115.222656 64.402344 114.871094 64.300781 C 114.429688 64.183594 113.773438 64.148438 113.488281 64.269531 C 111.191406 65.246094 110.382812 65.785156 109.203125 66.410156 C 109.675781 66.78125 110.738281 66.832031 111.261719 66.578125 Z M 116.269531 69.847656 L 117.0625 68.398438 L 115.59375 67.589844 L 114.785156 69.007812 Z M 111.3125 61.6875 C 111.648438 61.402344 111.429688 61.082031 111.210938 60.929688 C 111.125 60.84375 110.871094 60.660156 110.839844 60.625 C 110.5 60.304688 110.824219 60.203125 111.058594 60.289062 C 111.277344 60.390625 111.816406 60.980469 112.203125 60.640625 C 112.171875 60.441406 111.414062 59.898438 111.277344 59.832031 C 110.839844 59.628906 110.550781 59.648438 110.25 59.832031 C 109.808594 60.121094 109.910156 60.472656 110.300781 60.761719 C 110.402344 60.84375 110.890625 61.148438 110.738281 61.230469 C 110.433594 61.402344 109.726562 60.675781 109.472656 60.558594 C 109.304688 60.492188 109.152344 60.492188 109.035156 60.558594 C 109 60.589844 108.882812 60.640625 108.933594 60.660156 C 110.316406 61.703125 110.753906 62.144531 111.3125 61.6875 Z M 77.988281 144.738281 C 106.269531 144.738281 129.21875 121.789062 129.21875 93.492188 C 129.21875 65.210938 106.269531 42.261719 77.988281 42.261719 C 49.695312 42.261719 26.742188 65.210938 26.742188 93.492188 C 26.742188 121.789062 49.695312 144.738281 77.988281 144.738281 Z M 77.988281 142.730469 C 50.789062 142.730469 28.75 120.691406 28.75 93.492188 C 28.75 66.308594 50.789062 44.269531 77.988281 44.269531 C 105.171875 44.269531 127.214844 66.308594 127.214844 93.492188 C 127.214844 120.691406 105.171875 142.730469 77.988281 142.730469 Z M 78.429688 136.070312 C 83.976562 136.070312 87.449219 134.535156 90.992188 131.230469 L 93.789062 128.261719 L 90.316406 130.203125 C 87.820312 131.601562 85.679688 131.972656 83.4375 131.972656 C 75.34375 131.972656 68.714844 125.515625 68.714844 117.117188 L 67.484375 117.117188 C 67.484375 126.070312 74.53125 133.1875 83.4375 133.1875 C 84.71875 133.1875 85.863281 133.085938 87.078125 132.699219 C 84.566406 134.300781 81.953125 134.839844 78.429688 134.839844 C 68.445312 134.839844 60.554688 127 60.554688 117.117188 L 59.324219 117.117188 C 59.324219 127.589844 67.71875 136.070312 78.429688 136.070312 Z M 54.265625 114.621094 C 54.683594 115.3125 55.917969 115.042969 56.640625 114.503906 C 57.570312 113.792969 57.25 111.519531 58.277344 111.519531 C 58.699219 111.519531 58.140625 112.851562 58.140625 113.390625 L 58.902344 113.390625 C 59.019531 112.546875 59.304688 112.007812 59.121094 110.472656 C 59.003906 109.445312 62.78125 106.105469 63.269531 103.542969 C 63.519531 102.242188 63.589844 101.0625 63.101562 101.0625 C 62.542969 101.0625 61.683594 102.140625 61.261719 102.664062 C 60.183594 104.015625 60.132812 107.25 59.644531 108.484375 C 59.457031 108.921875 59.019531 109.023438 59.019531 108.71875 C 59.019531 107.757812 58.902344 106.949219 58.902344 105.917969 C 60.066406 104.164062 61.96875 100.574219 58.699219 97.523438 C 58.445312 97.285156 58.140625 97.269531 57.992188 97.523438 C 56.640625 99.78125 59.742188 103.542969 58.597656 104.65625 C 57.25 103.84375 58.140625 99.644531 55.359375 97.082031 C 54.734375 96.527344 54.515625 96.542969 54.265625 97.269531 C 53.351562 101.0625 57.621094 103.003906 58.140625 106.105469 C 58.261719 106.828125 58.460938 107.757812 58.277344 108.484375 C 58.140625 108.484375 57.855469 108.179688 57.71875 107.859375 C 56.808594 105.835938 57.5 104.046875 54.515625 101.820312 C 53.960938 106.410156 57.078125 108.0625 58.277344 109.445312 L 58.140625 109.867188 C 57.367188 110.976562 55.597656 110.472656 55.917969 113.171875 C 56.035156 114.199219 53.894531 113.8125 54.265625 114.621094 Z M 54.734375 112.546875 L 55.359375 112.261719 L 53.960938 109.867188 C 54.734375 106.410156 53.421875 103.726562 52.375 100.1875 C 51.09375 101.28125 52.121094 106.949219 53.082031 109.445312 C 52.375 109.023438 50.65625 106.660156 50.300781 104.941406 C 50.148438 104.164062 50.605469 101.820312 51.398438 100.1875 C 52.492188 97.960938 53.539062 95.617188 52.238281 92.277344 C 51.699219 96.105469 49.019531 98.011719 49.761719 103.121094 C 49.136719 102.140625 48.714844 100.640625 48.597656 99.34375 C 49.558594 96.359375 52.238281 93.441406 51.515625 90.640625 C 50.183594 92.699219 48.429688 93.542969 48.429688 97.386719 C 48.429688 98.011719 47.871094 97.808594 47.871094 97.386719 L 47.871094 94.285156 C 50.722656 91.0625 51.699219 87.523438 51.699219 84.402344 C 49.339844 86.542969 49.070312 89.917969 47.992188 92.699219 C 47.855469 93.019531 47.6875 93.019531 47.484375 92.699219 C 47.484375 91.179688 47.6875 89.917969 47.871094 88.464844 C 51.398438 83.558594 52.121094 80.457031 51.515625 76.933594 C 50.605469 79.125 48.648438 86.191406 48.429688 86.324219 C 48.175781 85.699219 48.429688 84.183594 48.714844 83.136719 C 49.523438 80.339844 50.90625 76.695312 50.183594 73.273438 C 47.0625 75.53125 47.992188 80.035156 47.992188 83.136719 C 47.992188 84.183594 47.957031 85.210938 47.6875 85.9375 C 47.570312 86.238281 47.382812 86.054688 47.382812 85.9375 C 47.382812 83.253906 47.6875 79.496094 46.960938 77.84375 C 44.398438 80.640625 46.355469 84.402344 47.0625 87.101562 C 47.199219 88.871094 46.960938 90.21875 46.960938 91.855469 C 45.816406 89.796875 47.0625 86.238281 45.191406 84.183594 C 42.832031 87.421875 46.238281 91.992188 46.960938 93.121094 C 46.960938 93.980469 47.0625 95.820312 47.0625 96.644531 C 46.355469 94.46875 45.496094 91.671875 43.960938 89.796875 C 42.5625 93.324219 45.613281 96.359375 47.0625 97.691406 L 48.597656 102.5625 C 48.597656 103.003906 48.175781 102.867188 47.992188 102.664062 C 46.640625 101.332031 45.613281 96.644531 44.398438 96.222656 C 43.253906 99.039062 46.640625 104.164062 48.851562 103.84375 L 51.820312 109.324219 C 50.183594 109.867188 48.292969 104.519531 45.394531 103.121094 C 48.175781 107.859375 47.0625 110.976562 52.238281 110.472656 Z M 60.605469 98.179688 L 61.195312 98.179688 L 61.195312 97.386719 L 61.683594 97.386719 L 61.683594 96.78125 L 60.605469 96.78125 Z M 67.839844 100.320312 L 68.445312 99.882812 L 67.0625 98.921875 L 60.707031 99.140625 L 60.707031 99.765625 L 66.792969 99.460938 Z M 54.734375 93.441406 L 55.425781 93.441406 L 55.425781 90.945312 C 55.425781 89.175781 57.078125 89.496094 57.078125 90.339844 L 57.078125 90.488281 L 57.671875 90.488281 L 57.671875 90.339844 C 57.671875 88.617188 54.734375 88.464844 54.734375 90.945312 Z M 59.121094 97.386719 L 59.742188 97.386719 L 59.742188 93.253906 L 61.9375 93.253906 L 61.9375 92.699219 L 59.441406 92.699219 C 59.324219 92.699219 59.121094 92.832031 59.121094 93.019531 Z M 63.03125 98.179688 L 63.65625 98.179688 L 63.65625 97.386719 L 64.128906 97.386719 L 64.128906 96.78125 L 63.03125 96.78125 Z M 60.605469 95.9375 L 61.144531 95.9375 L 61.144531 94.65625 L 61.816406 94.65625 L 61.816406 94.164062 L 60.605469 94.164062 Z M 59.324219 117.117188 L 60.554688 117.117188 C 60.554688 107.25 68.445312 99.410156 78.429688 99.410156 C 81.953125 99.410156 84.566406 99.949219 87.078125 101.535156 C 85.863281 101.164062 84.71875 101.0625 83.4375 101.0625 C 74.53125 101.0625 67.484375 108.179688 67.484375 117.117188 L 68.714844 117.117188 C 68.714844 108.71875 75.34375 102.242188 83.4375 102.242188 C 85.679688 102.242188 87.820312 102.648438 90.316406 104.046875 L 93.789062 105.96875 L 90.992188 103.003906 C 87.449219 99.714844 83.976562 98.179688 78.429688 98.179688 C 67.71875 98.179688 59.324219 106.660156 59.324219 117.117188 Z M 53.539062 87.421875 L 55.054688 86.542969 L 54.734375 81.382812 L 53.84375 81.382812 Z M 52.746094 89.039062 L 55.425781 86.191406 L 58.632812 88.195312 L 60.46875 86.238281 L 61.867188 87.421875 L 62.238281 86.964844 L 60.46875 85.515625 L 58.460938 87.523438 L 55.917969 85.820312 C 55.476562 85.53125 55.191406 85.648438 54.9375 85.9375 L 52.375 88.617188 Z M 59.253906 91.601562 L 59.929688 91.601562 L 59.929688 90.339844 C 59.929688 89.175781 60.976562 89.359375 60.976562 89.847656 L 60.976562 89.917969 L 61.582031 89.917969 L 61.582031 89.714844 C 61.582031 88.617188 59.253906 88.464844 59.253906 90.339844 Z M 67.769531 98.179688 L 68.394531 98.179688 L 68.394531 96.78125 L 68.867188 96.78125 L 68.867188 96.15625 L 67.769531 96.15625 Z M 89.625 122.359375 L 87.078125 119.054688 L 82.8125 120.40625 L 85.445312 116.828125 L 82.695312 113.238281 L 86.976562 114.367188 L 89.625 110.777344 L 89.574219 115.3125 L 93.707031 116.578125 L 89.574219 118.027344 Z M 90.925781 126.070312 L 90.804688 118.902344 L 97.550781 116.492188 L 90.804688 114.367188 L 90.925781 107.082031 L 86.488281 112.96875 L 79.59375 111.097656 L 83.925781 116.828125 L 79.710938 122.730469 L 86.65625 120.472656 Z M 58.597656 87.84375 L 58.460938 83.253906 L 57.5 83.253906 L 57.300781 87.285156 Z M 65.765625 98.230469 L 66.371094 98.230469 L 66.371094 95.261719 L 68.140625 94.097656 L 69.472656 95.3125 L 71.96875 95.3125 L 71.96875 94.773438 L 69.84375 94.773438 L 68.140625 93.324219 L 67.839844 93.863281 L 70.316406 93.863281 L 70.316406 93.324219 L 68.140625 93.324219 L 65.765625 94.976562 Z M 63.386719 83.339844 L 62.476562 95.617188 L 62.964844 95.617188 L 63.875 83.339844 Z M 71.546875 98.179688 L 72.105469 98.179688 L 72.105469 96.578125 L 73.269531 96.578125 L 73.269531 96.105469 L 71.546875 96.105469 Z M 63.03125 91.367188 L 67.90625 91.367188 L 65.34375 88.382812 Z M 64.011719 90.878906 L 65.34375 89.105469 L 66.792969 90.878906 Z M 59.742188 86.238281 L 61.261719 86.238281 L 60.976562 80.777344 L 60.0625 80.777344 Z M 56.757812 80.457031 C 57.855469 80.457031 58.277344 79.613281 59.742188 80.035156 C 60.164062 80.152344 60.707031 80.355469 60.976562 80.035156 C 61.144531 79.679688 60.164062 79.191406 59.742188 79.074219 C 57.570312 78.433594 56.808594 79.191406 55.054688 79.191406 C 54.9375 79.191406 54.617188 79.074219 54.515625 79.191406 C 54.28125 79.460938 54.515625 79.496094 54.617188 79.613281 C 55.191406 80.269531 56.066406 80.457031 56.757812 80.457031 Z M 65.34375 84.789062 L 63.199219 86.929688 L 65.34375 89.105469 L 67.347656 86.929688 Z M 65.34375 85.464844 L 66.691406 86.929688 L 65.34375 88.382812 L 63.875 86.929688 Z M 63.691406 87.101562 L 66.792969 87.101562 L 66.792969 86.609375 L 63.691406 86.609375 Z M 65.34375 85.464844 L 67.0625 83.339844 L 63.589844 83.339844 Z M 65.34375 84.671875 L 64.617188 83.828125 L 66.015625 83.828125 Z M 76.488281 95.617188 C 77.398438 94.585938 74.902344 93.746094 75.222656 93.121094 C 76.488281 94.285156 78.546875 95.078125 79.171875 94.164062 C 78.867188 92.140625 76.488281 93.746094 75.511719 92.699219 C 75.511719 91.855469 78.429688 93.019531 78.429688 91.671875 C 77.585938 91.179688 75.644531 90.339844 74.179688 92.140625 C 73.371094 91.855469 72.949219 91.433594 72.828125 91.0625 C 73.859375 91.433594 75.34375 90.757812 75.644531 90.339844 C 75.222656 89.039062 72.949219 89.796875 71.816406 90.015625 C 71.363281 89.917969 71.074219 89.597656 70.804688 89.175781 C 71.96875 89.496094 73.269531 89.359375 73.691406 88.871094 C 73.859375 87.960938 71.363281 87.523438 69.742188 87.65625 L 68.242188 85.210938 L 67.601562 85.9375 L 69.1875 88.464844 C 68.445312 91.179688 69.742188 92.394531 70.164062 92.140625 C 70.925781 91.671875 69.421875 90.339844 69.84375 89.496094 C 70.316406 89.917969 70.636719 90.21875 71.074219 90.488281 C 70.804688 93.121094 72.660156 95.398438 73.371094 94.585938 C 74.09375 93.777344 71.816406 92.582031 72.527344 91.855469 C 72.828125 92.277344 73.371094 92.582031 73.859375 92.832031 C 74.347656 94.285156 75.933594 95.9375 76.488281 95.617188 Z M 53.082031 76.511719 C 54.265625 76.832031 54.246094 77.402344 57.367188 74.636719 L 58.902344 73.273438 C 60.671875 71.722656 61.515625 72.292969 62.425781 72.984375 L 62.964844 72.414062 C 62.121094 71.652344 60.722656 70.691406 58.277344 72.734375 L 56.757812 74.015625 C 54.921875 75.566406 55.597656 75.296875 53.082031 76.511719 Z M 65.730469 83.136719 L 65.730469 81.265625 C 65.730469 78.871094 64.128906 79.125 63.269531 77 C 62.679688 79.308594 62.609375 80.457031 64.433594 82.226562 C 64.128906 81.433594 63.589844 80.523438 64.382812 79.867188 C 64.988281 80.304688 65.207031 80.640625 65.039062 81.992188 L 65.039062 83.136719 Z M 98.699219 115.347656 C 99.355469 116.457031 100.824219 115.953125 101.074219 115.347656 C 101.242188 114.925781 100.214844 114.148438 99.574219 114.011719 C 98.832031 113.84375 98.277344 114.621094 98.699219 115.347656 Z M 71.667969 85.820312 C 72.105469 85.820312 72.390625 85.515625 72.390625 85.09375 C 72.390625 84.605469 72.105469 84.300781 71.667969 84.300781 C 71.246094 84.300781 70.941406 84.605469 70.941406 85.09375 C 70.941406 85.515625 71.246094 85.820312 71.667969 85.820312 Z M 98.394531 120.167969 C 99.152344 120.589844 99.574219 119.898438 99.574219 119.476562 C 99.792969 119.476562 102.558594 120.050781 102.238281 118.144531 C 103.03125 118.144531 103.589844 118.027344 104.007812 116.828125 C 104.480469 116.929688 105.339844 116.828125 105.171875 115.953125 C 105.339844 115.800781 106.386719 116.375 106.386719 114.621094 C 107.113281 114.621094 107.835938 113.171875 106.808594 112.96875 C 106.574219 112.851562 106.691406 112.429688 106.808594 112.261719 C 107.144531 111.6875 107.535156 110.910156 106.691406 110.605469 C 106.203125 110.421875 106.691406 109.867188 106.386719 109.644531 C 106 109.359375 105.476562 109.445312 105.171875 109.765625 C 104.871094 110.085938 105.054688 110.355469 104.921875 110.605469 C 104.007812 111.097656 104.042969 111.90625 104.480469 112.429688 C 104.617188 112.5625 104.617188 112.96875 104.480469 113.171875 C 104.363281 113.339844 103.875 113.390625 103.875 113.8125 C 103.875 114.367188 104.3125 114.367188 104.632812 114.367188 C 104.632812 114.925781 104.75 115.648438 104.480469 115.800781 C 104.027344 116.039062 104.480469 114.925781 103.453125 114.367188 C 103.589844 113.59375 103.757812 112.546875 103.167969 112.546875 C 103.167969 112.125 103.453125 111.097656 102.238281 110.777344 C 102.238281 110.355469 101.800781 109.644531 101.226562 109.644531 C 100.535156 109.644531 100.535156 110.355469 100.535156 110.777344 C 99.792969 110.976562 99.929688 112.007812 100.652344 112.007812 C 100.214844 113.171875 100.957031 113.59375 101.648438 113.8125 C 101.226562 115.042969 102.609375 115.328125 103.167969 115.648438 C 103.46875 115.835938 103.453125 116.375 103.167969 116.222656 C 102.609375 115.902344 101.378906 115.464844 100.652344 116.929688 C 100.046875 116.828125 99.625 117 99.304688 117.117188 C 98.832031 117.554688 97.433594 119.628906 98.394531 120.167969 Z M 54.9375 77.960938 C 58.597656 77.960938 60.605469 75.96875 62.121094 74.4375 C 63.21875 73.355469 63.808594 72.5625 64.921875 72.734375 C 68.867188 73.355469 69.609375 73.59375 70.941406 72.984375 C 71.074219 72.835938 71.363281 72.734375 71.816406 72.5625 L 72.289062 71.332031 C 69.355469 72.835938 69.253906 72.800781 65.207031 71.753906 C 63.589844 71.332031 62.542969 72.734375 61.398438 73.710938 C 59.710938 75.144531 55.714844 77.792969 52.375 77.792969 Z M 108.207031 110.472656 L 108.867188 110.472656 L 108.867188 107.621094 L 97.667969 107.621094 L 97.667969 108.230469 L 108.207031 108.230469 Z M 92.375 101.535156 C 92.675781 101.71875 92.996094 101.398438 92.796875 100.640625 C 94.871094 101.0625 94.75 98.5 94.027344 98.5 C 92.675781 98.5 93.097656 99.460938 92.257812 99.460938 C 92.085938 99.460938 91.953125 99.34375 92.085938 98.921875 C 92.578125 98.617188 93.21875 98.921875 93.488281 98.179688 C 93.539062 97.691406 93.097656 97.523438 93.285156 97.082031 C 93.707031 97.082031 94.53125 96.054688 93.910156 95.617188 C 93.738281 95.496094 93.910156 95.398438 94.210938 95.195312 C 94.632812 94.773438 94.632812 94.285156 94.210938 93.863281 C 94.210938 93.542969 94.210938 93.054688 93.707031 92.832031 C 93.488281 92.714844 93.285156 92.632812 92.996094 92.832031 C 92.59375 93.085938 92.578125 93.746094 92.675781 94.285156 C 92.257812 94.285156 91.953125 94.46875 92.085938 95.195312 C 91.953125 95.398438 91.714844 95.734375 91.953125 96.105469 C 92.257812 96.542969 91.953125 96.644531 91.835938 96.78125 C 91.53125 96.78125 91.765625 97.203125 91.835938 97.386719 C 91.96875 97.757812 91.953125 98.011719 91.648438 98.011719 C 91.53125 97.523438 91.414062 96.964844 91.09375 96.542969 C 91.09375 96.222656 91.226562 95.9375 91.226562 95.617188 C 91.648438 95.820312 91.835938 95.398438 91.648438 95.078125 C 91.464844 94.773438 91.414062 94.164062 91.648438 93.980469 C 92.257812 93.980469 92.355469 93.222656 91.648438 92.832031 C 91.414062 92.699219 91.464844 92.328125 91.648438 92.140625 C 92.15625 91.585938 91.835938 90.757812 91.226562 91.179688 C 91.226562 90.339844 90.925781 89.496094 90.234375 89.496094 C 89.574219 89.496094 89.152344 90.21875 89.472656 90.945312 C 88.597656 90.640625 88.007812 92.832031 89.050781 93.121094 C 88.597656 94.164062 89.050781 94.46875 89.894531 94.976562 C 89.574219 95.398438 89.574219 95.9375 90.0625 96.105469 C 90.234375 96.542969 90.804688 97.269531 90.503906 97.523438 C 89.894531 97.082031 89.574219 95.617188 88.597656 95.9375 C 88.429688 94.773438 85.796875 93.863281 85.746094 94.46875 C 85.578125 96.359375 86.65625 98.71875 88.851562 98.617188 C 89.691406 98.71875 90.382812 98.011719 91.414062 99.039062 L 91.414062 99.460938 L 90.804688 99.59375 C 90.433594 99.679688 90.652344 100.1875 90.925781 100.1875 C 92.085938 100.1875 91.886719 101.214844 92.375 101.535156 Z M 99.878906 107.992188 L 105.476562 107.992188 L 107.28125 105.226562 L 98.039062 105.226562 Z M 100.183594 107.621094 L 98.96875 105.71875 L 106.386719 105.71875 L 105.171875 107.621094 Z M 78.75 96.542969 C 79.152344 96.8125 80.503906 96.105469 81.109375 95.398438 C 82.035156 94.300781 82.070312 93.863281 82.964844 93.121094 C 83.925781 93.324219 81.53125 96.105469 82.695312 96.105469 C 84.464844 96.105469 83.605469 93.441406 84.027344 92.277344 C 84.464844 91.855469 84.902344 91.0625 85.324219 90.757812 C 85.628906 91.0625 85.492188 91.671875 85.324219 92.140625 C 85.039062 93.019531 84.632812 93.746094 85.191406 93.746094 C 85.628906 93.746094 86.183594 93.324219 86.488281 92.277344 C 86.605469 91.855469 86.824219 91.550781 86.824219 90.757812 C 86.824219 90.488281 86.65625 90.015625 86.65625 89.597656 C 87.128906 89.175781 87.449219 87.84375 87.6875 87.65625 C 88.109375 87.84375 87.6875 89.496094 87.6875 89.917969 C 87.6875 90.21875 88.007812 90.640625 88.597656 90.019531 C 89.355469 89.191406 88.851562 87.421875 88.429688 86.542969 C 88.597656 85.9375 88.851562 85.515625 89.050781 84.859375 C 89.269531 85.515625 89.894531 89.175781 90.503906 87.523438 C 91.480469 84.875 89.304688 84.183594 89.472656 83.253906 L 89.894531 80.878906 C 89.960938 80.457031 89.691406 80.355469 89.691406 80.355469 L 89.152344 80.035156 C 89.050781 79.917969 88.597656 79.917969 88.597656 80.355469 C 88.597656 82.714844 88.429688 84.183594 87.871094 86.054688 C 86.976562 86.054688 83.46875 86.964844 84.027344 88.195312 C 84.210938 88.617188 85.191406 88.667969 85.933594 88.195312 C 86.421875 87.894531 86.65625 87.523438 87.128906 87.421875 C 86.976562 87.84375 86.050781 89.359375 85.746094 89.175781 C 85.003906 88.734375 81.363281 89.78125 82.070312 90.488281 C 82.507812 90.929688 82.964844 90.757812 83.605469 90.640625 C 84.027344 90.640625 84.464844 90.21875 84.902344 90.21875 L 83.722656 91.433594 C 83.25 91.179688 82.070312 91.179688 81.246094 91.671875 C 80.433594 92.140625 79.710938 92.699219 80.132812 93.019531 C 80.621094 93.390625 81.246094 92.832031 81.785156 92.582031 C 82.390625 92.3125 82.964844 91.992188 82.964844 92.277344 C 82.8125 92.699219 80.621094 93.863281 79.289062 94.976562 C 78.699219 95.464844 78.125 96.140625 78.75 96.542969 Z M 65.882812 71.652344 L 68.023438 70.777344 C 68.867188 70.421875 70.453125 70.488281 71.546875 70.910156 L 72.660156 71.332031 L 74.179688 70.777344 L 71.363281 69.933594 C 70.316406 69.613281 69.273438 69.460938 68.140625 69.933594 L 64.5 71.453125 Z M 100.722656 101.347656 L 98.882812 101.113281 L 100.601562 99.628906 Z M 75.933594 80.035156 L 76.792969 80.035156 L 76.792969 73.59375 L 75.933594 73.59375 Z M 100.652344 105.125 L 101.582031 105.125 L 98.699219 101.769531 L 100.722656 102.023438 L 100.773438 103.542969 L 102.1875 103.84375 L 102.070312 105.125 L 102.675781 105.125 L 102.726562 103.964844 L 104.261719 104.265625 L 103.167969 105.125 L 104.210938 105.125 L 105.527344 104.046875 L 100.839844 98.5 L 97.550781 101.347656 Z M 70.773438 87.421875 L 71.917969 87.523438 C 70.804688 85.632812 70.46875 84.738281 69.289062 84.183594 C 70.046875 83.136719 72.390625 83.019531 73.570312 84.605469 L 73.570312 73.59375 C 73.570312 71.992188 75.933594 71.992188 75.933594 73.59375 L 76.792969 73.59375 L 76.792969 70.355469 C 76.792969 68.398438 79.289062 68.398438 79.289062 70.355469 L 79.289062 73.59375 L 80.132812 73.59375 C 80.132812 71.992188 82.492188 71.992188 82.492188 73.59375 L 82.492188 84.402344 C 84.144531 82.597656 86.488281 82.109375 87.449219 83.019531 C 86.65625 83.441406 85.933594 84.300781 85.140625 86.542969 L 86.21875 86.121094 C 86.65625 85.09375 87.246094 83.878906 88.429688 83.136719 C 87.871094 81.382812 85.191406 81.0625 83.4375 82.394531 L 83.4375 73.59375 C 83.4375 70.777344 79.289062 70.777344 79.289062 73.59375 L 80.132812 73.59375 L 80.132812 70.355469 C 80.132812 67.234375 75.933594 67.234375 75.933594 70.355469 L 75.933594 73.59375 L 76.792969 73.59375 C 76.792969 70.777344 72.660156 70.777344 72.660156 73.59375 L 72.660156 82.851562 C 70.804688 81.871094 68.5625 82.714844 68.140625 84.300781 C 68.984375 84.859375 70.164062 86.054688 70.773438 87.421875 Z M 104.210938 103.542969 L 101.378906 102.933594 L 101.226562 100.066406 Z M 85.191406 84.605469 C 85.476562 84.605469 85.746094 84.300781 85.746094 83.878906 C 85.746094 83.558594 85.476562 83.253906 85.191406 83.253906 C 84.769531 83.253906 84.464844 83.558594 84.464844 83.878906 C 84.464844 84.300781 84.769531 84.605469 85.191406 84.605469 Z M 79.289062 80.035156 L 80.132812 80.035156 L 80.132812 73.59375 L 79.289062 73.59375 Z M 96.691406 100.910156 C 97.246094 100.910156 97.871094 98.921875 98.175781 97.386719 C 98.292969 96.78125 98.832031 95.515625 99.152344 96.644531 C 99.929688 99.445312 100.417969 99.039062 100.535156 98.5 C 100.671875 97.875 100.214844 94.046875 99.304688 94.164062 C 98.394531 94.265625 98.15625 95.886719 97.667969 96.644531 C 97.195312 97.386719 97.078125 96.78125 97.128906 96.542969 C 97.886719 93.253906 99.625 90.457031 99.019531 88.3125 C 98.816406 87.65625 99.304688 87.167969 99.574219 86.8125 C 99.792969 86.542969 99.492188 86.238281 99.019531 86.542969 L 97.011719 87.84375 C 96.707031 88.042969 96.203125 88.382812 96.691406 88.617188 C 97.144531 88.820312 98.277344 87.960938 98.394531 88.871094 C 98.394531 91.179688 96.589844 94.285156 96.203125 96.78125 C 96.589844 93.980469 96.386719 90.945312 95.613281 89.796875 C 94.683594 88.449219 94.195312 87.960938 94.332031 88.734375 C 94.601562 90.488281 95.070312 91.992188 95.070312 94.773438 C 95.070312 96.964844 96.320312 100.910156 96.691406 100.910156 Z M 96.035156 87.65625 C 97.484375 86.882812 95.476562 85.398438 93.910156 85.515625 C 93.707031 86.054688 94.871094 88.265625 96.035156 87.65625 Z M 94.449219 84.855469 C 95.796875 84.199219 93.707031 82.714844 92.375 82.851562 C 92.257812 83.253906 93.21875 85.449219 94.449219 84.855469 Z M 92.996094 82.292969 C 94.09375 81.855469 92.375 80.035156 90.804688 80.355469 C 90.652344 80.777344 91.632812 82.832031 92.996094 82.292969 Z M 97.667969 86.660156 C 98.578125 86.039062 97.246094 84.738281 96.203125 84.738281 C 95.898438 85.632812 96.742188 87.269531 97.667969 86.660156 Z M 101.515625 98.921875 C 102.121094 98.921875 102.777344 97.386719 102.777344 97.269531 C 102.777344 97.082031 104.144531 94.554688 104.058594 95.683594 C 103.941406 97.691406 104.921875 97.335938 105.476562 98.921875 C 105.964844 97.691406 105.339844 93.746094 104.480469 93.863281 C 103.589844 93.996094 103.316406 95.058594 102.777344 95.9375 C 102.675781 96.105469 102.425781 96.15625 102.558594 95.820312 C 103.824219 92.648438 104.9375 88.144531 104.210938 85.9375 C 104.027344 85.398438 104.429688 84.855469 104.75 84.402344 C 104.902344 84.183594 104.617188 83.914062 104.210938 84.183594 L 102.121094 85.515625 C 101.800781 85.699219 101.800781 86.054688 102.238281 86.054688 C 102.675781 86.054688 103.636719 85.9375 103.757812 86.542969 C 104.160156 88.90625 102.777344 93.019531 101.933594 94.773438 C 102.238281 91.992188 102.492188 90.203125 102.121094 89.039062 C 101.613281 87.4375 100.652344 87.234375 100.773438 87.960938 C 101.023438 89.796875 101.226562 92.140625 101.226562 94.976562 C 101.226562 97.082031 101.226562 98.921875 101.515625 98.921875 Z M 96.035156 83.878906 C 96.960938 83.238281 95.613281 82.109375 94.632812 82.109375 C 94.332031 83.019531 94.988281 84.605469 96.035156 83.878906 Z M 94.449219 81.484375 C 95.171875 80.777344 93.910156 79.496094 93.097656 79.496094 C 92.796875 80.457031 93.605469 81.992188 94.449219 81.484375 Z M 91.953125 79.191406 C 92.898438 78.414062 90.925781 77.253906 89.691406 77.671875 L 86.976562 73.222656 L 86.824219 73.273438 L 89.472656 77.960938 C 89.84375 78.636719 91.109375 79.917969 91.953125 79.191406 Z M 70.46875 70.1875 C 70.46875 66.105469 74.042969 62.582031 78.328125 62.582031 C 82.390625 62.582031 85.933594 66.105469 85.933594 70.1875 L 89.472656 68.28125 L 87.246094 67.792969 L 91.414062 65.179688 L 86.488281 66.207031 L 88.429688 63.847656 L 85.628906 64.757812 L 88.007812 61.351562 L 84.347656 63.609375 L 84.902344 61.214844 L 82.964844 62.75 L 83.4375 58.113281 L 81.246094 61.957031 L 80.824219 58.667969 L 79.289062 61.351562 L 78.007812 56.832031 L 77.164062 61.351562 L 75.644531 59.039062 L 75.511719 62.074219 L 72.660156 58.667969 L 73.570312 62.75 L 70.636719 60.507812 L 71.96875 63.710938 L 66.371094 60.609375 L 70.164062 65.296875 L 67.230469 64.453125 L 69.289062 66.207031 L 63.386719 65.667969 L 69.1875 68.113281 L 65.765625 68.886719 Z M 98.699219 85.820312 C 100.183594 84.722656 98.832031 83.136719 98.175781 82.597656 C 97.550781 83.558594 97.617188 86.609375 98.699219 85.820312 Z M 90.503906 77.117188 L 91.09375 77.117188 L 88.039062 72.683594 L 88.007812 72.734375 Z M 97.128906 83.136719 C 98.597656 82.175781 97.246094 80.457031 96.589844 79.730469 C 95.898438 80.878906 96.035156 83.878906 97.128906 83.136719 Z M 95.476562 80.640625 C 96.960938 79.445312 95.613281 77.960938 94.871094 77.421875 C 94.332031 78.652344 94.449219 81.5 95.476562 80.640625 Z M 91.953125 76.695312 L 92.085938 76.089844 L 89.203125 72.074219 L 89.152344 72.125 Z M 108.578125 103.84375 L 109 103.726562 C 109.1875 103.726562 109.304688 103.421875 109.117188 103.289062 C 107.28125 95.9375 113.300781 91.6875 110.941406 85.09375 C 110.773438 84.605469 110.519531 84.605469 110.519531 85.210938 C 111.261719 89.496094 108.699219 93.746094 107.957031 98.179688 C 107.414062 91.433594 110.402344 87.523438 109.304688 83.710938 C 109.070312 82.832031 109.523438 81.871094 110.097656 81.0625 C 110.28125 80.828125 109.808594 80.757812 109.609375 80.878906 L 106.574219 82.851562 C 106.101562 83.152344 106.386719 83.558594 106.691406 83.441406 C 107.550781 83.105469 108.277344 83.253906 108.578125 83.878906 C 109.675781 86.15625 107.28125 90.945312 107.113281 94.285156 C 106.386719 92.582031 107.734375 87.234375 105.78125 87.234375 C 103.757812 87.234375 105.054688 90.488281 104.632812 91.992188 C 105.339844 92.140625 105.171875 89.597656 105.78125 89.917969 C 105.476562 94.773438 106.945312 99.089844 108.277344 103.542969 C 108.328125 103.726562 108.460938 103.878906 108.578125 103.84375 Z M 84.144531 71.753906 L 84.902344 71.332031 C 85.933594 70.761719 87.128906 70.320312 88.109375 70.472656 L 90.0625 70.777344 L 91.953125 70.1875 L 87.6875 69.628906 C 86.65625 69.496094 85.5625 69.816406 84.769531 70.1875 L 82.695312 71.148438 Z M 93.097656 78.09375 C 94.195312 77.351562 93.488281 75.785156 92.996094 75.347656 L 90.433594 71.570312 L 90.382812 71.652344 L 92.675781 75.667969 C 92.375 76.511719 92.070312 78.769531 93.097656 78.09375 Z M 102.558594 84.402344 C 103.4375 83.625 101.515625 82.714844 100.351562 83.136719 C 100.214844 83.558594 101.648438 85.210938 102.558594 84.402344 Z M 101.226562 82.394531 C 102.238281 81.601562 100.214844 80.640625 99.019531 81.0625 C 98.832031 81.484375 100.300781 83.136719 101.226562 82.394531 Z M 99.929688 80.355469 C 100.839844 79.628906 98.832031 78.652344 97.667969 79.074219 C 97.550781 79.496094 99.019531 81.0625 99.929688 80.355469 Z M 98.597656 78.28125 C 99.523438 77.488281 97.550781 76.511719 96.320312 76.933594 C 96.203125 77.421875 97.667969 79.074219 98.597656 78.28125 Z M 103.589844 83.558594 C 104.699219 82.902344 103.757812 80.878906 103.335938 80.878906 C 102.355469 81.871094 102.558594 84.167969 103.589844 83.558594 Z M 97.246094 76.089844 C 98.257812 75.261719 96.203125 74.132812 95.070312 74.636719 L 92.308594 71.03125 L 92.257812 71.082031 L 94.75 74.859375 C 95.191406 75.53125 96.335938 76.832031 97.246094 76.089844 Z M 102.238281 81.484375 C 103.386719 80.808594 102.355469 78.871094 101.933594 78.871094 C 101.074219 79.730469 101.226562 82.109375 102.238281 81.484375 Z M 100.957031 79.496094 C 102.121094 78.886719 101.074219 76.832031 100.652344 76.832031 C 99.792969 77.671875 99.929688 80.035156 100.957031 79.496094 Z M 95.613281 73.878906 L 96.203125 73.878906 L 93.539062 70.289062 L 93.488281 70.355469 Z M 99.574219 77.421875 C 100.722656 76.710938 99.792969 74.757812 99.304688 74.757812 C 98.394531 75.667969 98.597656 78.042969 99.574219 77.421875 Z M 97.128906 73.457031 L 97.246094 72.835938 L 94.820312 69.730469 L 94.75 69.796875 Z M 106.386719 82.109375 C 107.601562 81.382812 105.78125 80.035156 104.480469 80.21875 C 104.3125 80.640625 105.339844 82.714844 106.386719 82.109375 Z M 98.277344 75.246094 C 99.441406 74.636719 98.597656 72.835938 98.175781 72.414062 L 95.78125 69.207031 L 95.714844 69.257812 L 97.855469 72.734375 C 97.550781 73.59375 97.246094 75.785156 98.277344 75.246094 Z M 104.921875 79.613281 C 106.082031 78.9375 104.3125 77.539062 103.03125 77.671875 C 102.777344 78.09375 103.875 80.238281 104.921875 79.613281 Z M 103.589844 77.117188 C 104.601562 76.492188 103.03125 75.246094 101.648438 75.347656 C 101.515625 75.785156 102.609375 77.742188 103.589844 77.117188 Z M 107.835938 81.199219 C 108.5625 80.609375 107.414062 79.496094 106.574219 79.496094 C 106.203125 80.355469 106.996094 81.871094 107.835938 81.199219 Z M 106.386719 78.769531 C 107.179688 78.179688 105.898438 76.933594 105.054688 76.933594 C 104.75 77.84375 105.527344 79.425781 106.386719 78.769531 Z M 104.921875 76.390625 C 105.59375 75.785156 104.480469 74.636719 103.757812 74.636719 C 103.453125 75.53125 104.3125 76.933594 104.921875 76.390625 Z M 102.777344 74.316406 C 103.722656 73.492188 101.800781 72.414062 100.652344 72.835938 L 97.316406 68.398438 L 97.246094 68.464844 L 100.351562 73.171875 C 100.753906 73.796875 101.953125 75.058594 102.777344 74.316406 Z M 108.699219 80.457031 C 110.097656 79.410156 108.867188 77.960938 108.277344 77.421875 C 107.734375 78.449219 107.785156 81.148438 108.699219 80.457031 Z M 101.378906 72.292969 L 101.933594 72.292969 L 98.664062 67.859375 L 98.546875 67.925781 Z M 107.28125 77.960938 C 108.511719 76.863281 107.414062 75.53125 106.808594 74.859375 C 106.203125 75.96875 106.386719 78.769531 107.28125 77.960938 Z M 105.78125 75.667969 C 107.144531 74.722656 105.898438 73.273438 105.339844 72.734375 C 104.75 73.710938 104.851562 76.324219 105.78125 75.667969 Z M 102.777344 71.753906 L 103.03125 71.230469 L 99.929688 67.015625 L 99.792969 67.082031 Z M 104.007812 73.273438 C 105.121094 72.648438 104.3125 70.910156 103.875 70.472656 L 100.90625 66.390625 L 100.839844 66.476562 L 103.589844 70.777344 C 103.335938 71.652344 102.980469 73.878906 104.007812 73.273438 Z M 104.007812 73.273438 " fill-opacity="1" fill-rule="nonzero"/></g><g fill="#ffffff" fill-opacity="1"><g transform="translate(149.880675, 66.082867)"><g><path d="M 9.8125 0 L 6.125 -13 L 6.015625 -13 C 6.191406 -10.789062 6.28125 -9.070312 6.28125 -7.84375 L 6.28125 0 L 1.953125 0 L 1.953125 -18.0625 L 8.453125 -18.0625 L 12.21875 -5.234375 L 12.3125 -5.234375 L 16.015625 -18.0625 L 22.515625 -18.0625 L 22.515625 0 L 18.03125 0 L 18.03125 -7.921875 C 18.03125 -8.328125 18.035156 -8.78125 18.046875 -9.28125 C 18.066406 -9.789062 18.125 -11.023438 18.21875 -12.984375 L 18.109375 -12.984375 L 14.46875 0 Z M 9.8125 0 "/></g></g></g><g fill="#ffffff" fill-opacity="1"><g transform="translate(174.316514, 66.082867)"><g><path d="M 6.515625 0 L 1.6875 0 L 1.6875 -14 L 6.515625 -14 Z M 1.5625 -17.484375 C 1.5625 -18.203125 1.765625 -18.738281 2.171875 -19.09375 C 2.578125 -19.445312 3.226562 -19.625 4.125 -19.625 C 5.019531 -19.625 5.671875 -19.441406 6.078125 -19.078125 C 6.492188 -18.722656 6.703125 -18.191406 6.703125 -17.484375 C 6.703125 -16.066406 5.84375 -15.359375 4.125 -15.359375 C 2.414062 -15.359375 1.5625 -16.066406 1.5625 -17.484375 Z M 1.5625 -17.484375 "/></g></g></g><g fill="#ffffff" fill-opacity="1"><g transform="translate(182.535842, 66.082867)"><g><path d="M 10.5 0 L 10.5 -7.640625 C 10.5 -8.566406 10.363281 -9.265625 10.09375 -9.734375 C 9.832031 -10.210938 9.40625 -10.453125 8.8125 -10.453125 C 7.988281 -10.453125 7.394531 -10.125 7.03125 -9.46875 C 6.675781 -8.820312 6.5 -7.707031 6.5 -6.125 L 6.5 0 L 1.671875 0 L 1.671875 -14 L 5.3125 -14 L 5.921875 -12.265625 L 6.203125 -12.265625 C 6.609375 -12.921875 7.175781 -13.410156 7.90625 -13.734375 C 8.632812 -14.066406 9.472656 -14.234375 10.421875 -14.234375 C 11.972656 -14.234375 13.175781 -13.785156 14.03125 -12.890625 C 14.894531 -11.992188 15.328125 -10.734375 15.328125 -9.109375 L 15.328125 0 Z M 10.5 0 "/></g></g></g><g fill="#ffffff" fill-opacity="1"><g transform="translate(199.468151, 66.082867)"><g><path d="M 6.515625 0 L 1.6875 0 L 1.6875 -14 L 6.515625 -14 Z M 1.5625 -17.484375 C 1.5625 -18.203125 1.765625 -18.738281 2.171875 -19.09375 C 2.578125 -19.445312 3.226562 -19.625 4.125 -19.625 C 5.019531 -19.625 5.671875 -19.441406 6.078125 -19.078125 C 6.492188 -18.722656 6.703125 -18.191406 6.703125 -17.484375 C 6.703125 -16.066406 5.84375 -15.359375 4.125 -15.359375 C 2.414062 -15.359375 1.5625 -16.066406 1.5625 -17.484375 Z M 1.5625 -17.484375 "/></g></g></g><g fill="#ffffff" fill-opacity="1"><g transform="translate(207.687479, 66.082867)"><g><path d="M 12.46875 -4.296875 C 12.46875 -2.796875 11.957031 -1.660156 10.9375 -0.890625 C 9.914062 -0.128906 8.453125 0.25 6.546875 0.25 C 5.503906 0.25 4.597656 0.191406 3.828125 0.078125 C 3.066406 -0.0351562 2.289062 -0.238281 1.5 -0.53125 L 1.5 -4.390625 C 2.25 -4.066406 3.066406 -3.796875 3.953125 -3.578125 C 4.847656 -3.367188 5.644531 -3.265625 6.34375 -3.265625 C 7.394531 -3.265625 7.921875 -3.503906 7.921875 -3.984375 C 7.921875 -4.222656 7.773438 -4.4375 7.484375 -4.625 C 7.191406 -4.820312 6.335938 -5.203125 4.921875 -5.765625 C 3.640625 -6.296875 2.742188 -6.894531 2.234375 -7.5625 C 1.722656 -8.238281 1.46875 -9.085938 1.46875 -10.109375 C 1.46875 -11.410156 1.96875 -12.421875 2.96875 -13.140625 C 3.976562 -13.867188 5.398438 -14.234375 7.234375 -14.234375 C 8.160156 -14.234375 9.03125 -14.132812 9.84375 -13.9375 C 10.65625 -13.738281 11.492188 -13.445312 12.359375 -13.0625 L 11.0625 -9.9375 C 10.414062 -10.226562 9.734375 -10.472656 9.015625 -10.671875 C 8.296875 -10.878906 7.710938 -10.984375 7.265625 -10.984375 C 6.472656 -10.984375 6.078125 -10.789062 6.078125 -10.40625 C 6.078125 -10.164062 6.210938 -9.957031 6.484375 -9.78125 C 6.765625 -9.613281 7.5625 -9.269531 8.875 -8.75 C 9.851562 -8.351562 10.582031 -7.957031 11.0625 -7.5625 C 11.550781 -7.175781 11.90625 -6.722656 12.125 -6.203125 C 12.351562 -5.679688 12.46875 -5.046875 12.46875 -4.296875 Z M 12.46875 -4.296875 "/></g></g></g><g fill="#ffffff" fill-opacity="1"><g transform="translate(221.164214, 66.082867)"><g><path d="M 8.515625 -3.5625 C 9.171875 -3.5625 9.953125 -3.722656 10.859375 -4.046875 L 10.859375 -0.53125 C 10.203125 -0.25 9.578125 -0.0507812 8.984375 0.0625 C 8.398438 0.1875 7.710938 0.25 6.921875 0.25 C 5.304688 0.25 4.140625 -0.144531 3.421875 -0.9375 C 2.703125 -1.738281 2.34375 -2.960938 2.34375 -4.609375 L 2.34375 -10.375 L 0.65625 -10.375 L 0.65625 -12.34375 L 2.796875 -13.859375 L 4.046875 -16.796875 L 7.21875 -16.796875 L 7.21875 -14 L 10.640625 -14 L 10.640625 -10.375 L 7.21875 -10.375 L 7.21875 -4.921875 C 7.21875 -4.015625 7.648438 -3.5625 8.515625 -3.5625 Z M 8.515625 -3.5625 "/></g></g></g><g fill="#ffffff" fill-opacity="1"><g transform="translate(232.78975, 66.082867)"><g><path d="M 10.109375 -14.234375 C 10.535156 -14.234375 10.9375 -14.203125 11.3125 -14.140625 L 11.59375 -14.09375 L 11.15625 -9.53125 C 10.757812 -9.632812 10.210938 -9.6875 9.515625 -9.6875 C 8.460938 -9.6875 7.695312 -9.441406 7.21875 -8.953125 C 6.738281 -8.472656 6.5 -7.78125 6.5 -6.875 L 6.5 0 L 1.671875 0 L 1.671875 -14 L 5.265625 -14 L 6.015625 -11.765625 L 6.25 -11.765625 C 6.65625 -12.503906 7.21875 -13.097656 7.9375 -13.546875 C 8.65625 -14.003906 9.378906 -14.234375 10.109375 -14.234375 Z M 10.109375 -14.234375 "/></g></g></g><g fill="#ffffff" fill-opacity="1"><g transform="translate(244.649771, 66.082867)"><g><path d="M -0.03125 -14 L 5.0625 -14 L 7.4375 -5.96875 C 7.550781 -5.550781 7.628906 -5.046875 7.671875 -4.453125 L 7.765625 -4.453125 C 7.835938 -5.015625 7.9375 -5.507812 8.0625 -5.9375 L 10.5 -14 L 15.421875 -14 L 9.890625 0.890625 C 9.179688 2.785156 8.3125 4.125 7.28125 4.90625 C 6.25 5.6875 4.898438 6.078125 3.234375 6.078125 C 2.585938 6.078125 1.929688 6.007812 1.265625 5.875 L 1.265625 2.078125 C 1.703125 2.171875 2.195312 2.21875 2.75 2.21875 C 3.175781 2.21875 3.550781 2.132812 3.875 1.96875 C 4.195312 1.8125 4.476562 1.582031 4.71875 1.28125 C 4.957031 0.976562 5.210938 0.484375 5.484375 -0.203125 Z M -0.03125 -14 "/></g></g></g><g fill="#ffffff" fill-opacity="1"><g transform="translate(260.064096, 66.082867)"><g/></g></g><g fill="#ffffff" fill-opacity="1"><g transform="translate(266.629685, 66.082867)"><g><path d="M 18.84375 -9.046875 C 18.84375 -6.015625 18.097656 -3.707031 16.609375 -2.125 C 15.117188 -0.539062 12.9375 0.25 10.0625 0.25 C 7.226562 0.25 5.054688 -0.539062 3.546875 -2.125 C 2.035156 -3.71875 1.28125 -6.035156 1.28125 -9.078125 C 1.28125 -12.085938 2.03125 -14.382812 3.53125 -15.96875 C 5.039062 -17.550781 7.226562 -18.34375 10.09375 -18.34375 C 12.96875 -18.34375 15.144531 -17.554688 16.625 -15.984375 C 18.101562 -14.410156 18.84375 -12.097656 18.84375 -9.046875 Z M 6.421875 -9.046875 C 6.421875 -5.554688 7.632812 -3.8125 10.0625 -3.8125 C 11.300781 -3.8125 12.21875 -4.234375 12.8125 -5.078125 C 13.40625 -5.929688 13.703125 -7.253906 13.703125 -9.046875 C 13.703125 -10.859375 13.398438 -12.191406 12.796875 -13.046875 C 12.191406 -13.910156 11.289062 -14.34375 10.09375 -14.34375 C 7.644531 -14.34375 6.421875 -12.578125 6.421875 -9.046875 Z M 6.421875 -9.046875 "/></g></g></g><g fill="#ffffff" fill-opacity="1"><g transform="translate(286.77074, 66.082867)"><g><path d="M 10.21875 -10.375 L 7.234375 -10.375 L 7.234375 0 L 2.40625 0 L 2.40625 -10.375 L 0.5625 -10.375 L 0.5625 -12.75 L 2.5 -13.9375 L 2.5 -14.171875 C 2.5 -16.015625 2.875 -17.335938 3.625 -18.140625 C 4.382812 -18.953125 5.597656 -19.359375 7.265625 -19.359375 C 7.898438 -19.359375 8.503906 -19.304688 9.078125 -19.203125 C 9.648438 -19.109375 10.316406 -18.9375 11.078125 -18.6875 L 10.046875 -15.5625 C 9.453125 -15.726562 8.867188 -15.8125 8.296875 -15.8125 C 7.929688 -15.8125 7.660156 -15.695312 7.484375 -15.46875 C 7.316406 -15.238281 7.234375 -14.867188 7.234375 -14.359375 L 7.234375 -14 L 10.21875 -14 Z M 10.21875 -10.375 "/></g></g></g><g fill="#ffffff" fill-opacity="1"><g transform="translate(149.880675, 100.543086)"><g><path d="M 17.28125 -9.40625 C 17.28125 -6.394531 16.445312 -4.070312 14.78125 -2.4375 C 13.125 -0.8125 10.796875 0 7.796875 0 L 1.953125 0 L 1.953125 -18.0625 L 8.203125 -18.0625 C 11.097656 -18.0625 13.332031 -17.316406 14.90625 -15.828125 C 16.488281 -14.347656 17.28125 -12.207031 17.28125 -9.40625 Z M 12.21875 -9.234375 C 12.21875 -10.890625 11.890625 -12.117188 11.234375 -12.921875 C 10.578125 -13.722656 9.582031 -14.125 8.25 -14.125 L 6.828125 -14.125 L 6.828125 -4 L 7.921875 -4 C 9.398438 -4 10.484375 -4.425781 11.171875 -5.28125 C 11.867188 -6.144531 12.21875 -7.460938 12.21875 -9.234375 Z M 12.21875 -9.234375 "/></g></g></g><g fill="#ffffff" fill-opacity="1"><g transform="translate(168.429698, 100.543086)"><g><path d="M 6.515625 0 L 1.6875 0 L 1.6875 -14 L 6.515625 -14 Z M 1.5625 -17.484375 C 1.5625 -18.203125 1.765625 -18.738281 2.171875 -19.09375 C 2.578125 -19.445312 3.226562 -19.625 4.125 -19.625 C 5.019531 -19.625 5.671875 -19.441406 6.078125 -19.078125 C 6.492188 -18.722656 6.703125 -18.191406 6.703125 -17.484375 C 6.703125 -16.066406 5.84375 -15.359375 4.125 -15.359375 C 2.414062 -15.359375 1.5625 -16.066406 1.5625 -17.484375 Z M 1.5625 -17.484375 "/></g></g></g><g fill="#ffffff" fill-opacity="1"><g transform="translate(176.649026, 100.543086)"><g><path d="M 14.875 -14 L 14.875 -11.65625 L 12.953125 -10.953125 C 13.222656 -10.472656 13.359375 -9.914062 13.359375 -9.28125 C 13.359375 -7.78125 12.828125 -6.613281 11.765625 -5.78125 C 10.703125 -4.945312 9.125 -4.53125 7.03125 -4.53125 C 6.507812 -4.53125 6.097656 -4.5625 5.796875 -4.625 C 5.679688 -4.414062 5.625 -4.21875 5.625 -4.03125 C 5.625 -3.789062 5.816406 -3.601562 6.203125 -3.46875 C 6.585938 -3.34375 7.09375 -3.28125 7.71875 -3.28125 L 10.046875 -3.28125 C 13.179688 -3.28125 14.75 -1.960938 14.75 0.671875 C 14.75 2.378906 14.019531 3.707031 12.5625 4.65625 C 11.113281 5.601562 9.078125 6.078125 6.453125 6.078125 C 4.460938 6.078125 2.929688 5.742188 1.859375 5.078125 C 0.785156 4.421875 0.25 3.46875 0.25 2.21875 C 0.25 0.550781 1.285156 -0.523438 3.359375 -1.015625 C 2.929688 -1.191406 2.554688 -1.484375 2.234375 -1.890625 C 1.921875 -2.296875 1.765625 -2.695312 1.765625 -3.09375 C 1.765625 -3.53125 1.882812 -3.914062 2.125 -4.25 C 2.363281 -4.582031 2.863281 -4.976562 3.625 -5.4375 C 2.894531 -5.757812 2.320312 -6.257812 1.90625 -6.9375 C 1.488281 -7.625 1.28125 -8.457031 1.28125 -9.4375 C 1.28125 -10.957031 1.796875 -12.132812 2.828125 -12.96875 C 3.867188 -13.8125 5.351562 -14.234375 7.28125 -14.234375 C 7.539062 -14.234375 7.984375 -14.203125 8.609375 -14.140625 C 9.234375 -14.085938 9.695312 -14.039062 10 -14 Z M 4.328125 1.734375 C 4.328125 2.128906 4.539062 2.445312 4.96875 2.6875 C 5.394531 2.9375 5.96875 3.0625 6.6875 3.0625 C 7.851562 3.0625 8.785156 2.914062 9.484375 2.625 C 10.191406 2.332031 10.546875 1.957031 10.546875 1.5 C 10.546875 1.125 10.332031 0.859375 9.90625 0.703125 C 9.476562 0.554688 8.863281 0.484375 8.0625 0.484375 L 6.171875 0.484375 C 5.648438 0.484375 5.210938 0.601562 4.859375 0.84375 C 4.503906 1.082031 4.328125 1.378906 4.328125 1.734375 Z M 5.84375 -9.40625 C 5.84375 -7.976562 6.34375 -7.265625 7.34375 -7.265625 C 7.800781 -7.265625 8.15625 -7.441406 8.40625 -7.796875 C 8.65625 -8.148438 8.78125 -8.679688 8.78125 -9.390625 C 8.78125 -10.835938 8.300781 -11.5625 7.34375 -11.5625 C 6.34375 -11.5625 5.84375 -10.84375 5.84375 -9.40625 Z M 5.84375 -9.40625 "/></g></g></g><g fill="#ffffff" fill-opacity="1"><g transform="translate(191.96462, 100.543086)"><g><path d="M 6.515625 0 L 1.6875 0 L 1.6875 -14 L 6.515625 -14 Z M 1.5625 -17.484375 C 1.5625 -18.203125 1.765625 -18.738281 2.171875 -19.09375 C 2.578125 -19.445312 3.226562 -19.625 4.125 -19.625 C 5.019531 -19.625 5.671875 -19.441406 6.078125 -19.078125 C 6.492188 -18.722656 6.703125 -18.191406 6.703125 -17.484375 C 6.703125 -16.066406 5.84375 -15.359375 4.125 -15.359375 C 2.414062 -15.359375 1.5625 -16.066406 1.5625 -17.484375 Z M 1.5625 -17.484375 "/></g></g></g><g fill="#ffffff" fill-opacity="1"><g transform="translate(200.183948, 100.543086)"><g><path d="M 8.515625 -3.5625 C 9.171875 -3.5625 9.953125 -3.722656 10.859375 -4.046875 L 10.859375 -0.53125 C 10.203125 -0.25 9.578125 -0.0507812 8.984375 0.0625 C 8.398438 0.1875 7.710938 0.25 6.921875 0.25 C 5.304688 0.25 4.140625 -0.144531 3.421875 -0.9375 C 2.703125 -1.738281 2.34375 -2.960938 2.34375 -4.609375 L 2.34375 -10.375 L 0.65625 -10.375 L 0.65625 -12.34375 L 2.796875 -13.859375 L 4.046875 -16.796875 L 7.21875 -16.796875 L 7.21875 -14 L 10.640625 -14 L 10.640625 -10.375 L 7.21875 -10.375 L 7.21875 -4.921875 C 7.21875 -4.015625 7.648438 -3.5625 8.515625 -3.5625 Z M 8.515625 -3.5625 "/></g></g></g><g fill="#ffffff" fill-opacity="1"><g transform="translate(211.809484, 100.543086)"><g><path d="M 10.796875 0 L 9.875 -1.859375 L 9.765625 -1.859375 C 9.117188 -1.046875 8.457031 -0.488281 7.78125 -0.1875 C 7.101562 0.101562 6.226562 0.25 5.15625 0.25 C 3.84375 0.25 2.804688 -0.144531 2.046875 -0.9375 C 1.285156 -1.726562 0.90625 -2.84375 0.90625 -4.28125 C 0.90625 -5.769531 1.425781 -6.878906 2.46875 -7.609375 C 3.507812 -8.335938 5.015625 -8.742188 6.984375 -8.828125 L 9.3125 -8.90625 L 9.3125 -9.109375 C 9.3125 -10.253906 8.742188 -10.828125 7.609375 -10.828125 C 6.585938 -10.828125 5.289062 -10.484375 3.71875 -9.796875 L 2.328125 -12.984375 C 3.953125 -13.816406 6.007812 -14.234375 8.5 -14.234375 C 10.289062 -14.234375 11.675781 -13.789062 12.65625 -12.90625 C 13.644531 -12.019531 14.140625 -10.773438 14.140625 -9.171875 L 14.140625 0 Z M 7.21875 -3.15625 C 7.800781 -3.15625 8.300781 -3.34375 8.71875 -3.71875 C 9.132812 -4.09375 9.34375 -4.570312 9.34375 -5.15625 L 9.34375 -6.25 L 8.21875 -6.203125 C 6.632812 -6.140625 5.84375 -5.554688 5.84375 -4.453125 C 5.84375 -3.585938 6.300781 -3.15625 7.21875 -3.15625 Z M 7.21875 -3.15625 "/></g></g></g><g fill="#ffffff" fill-opacity="1"><g transform="translate(227.557024, 100.543086)"><g><path d="M 6.5 0 L 1.671875 0 L 1.671875 -19.21875 L 6.5 -19.21875 Z M 6.5 0 "/></g></g></g><g fill="#ffffff" fill-opacity="1"><g transform="translate(235.726987, 100.543086)"><g><path d="M 6.515625 0 L 1.6875 0 L 1.6875 -14 L 6.515625 -14 Z M 1.5625 -17.484375 C 1.5625 -18.203125 1.765625 -18.738281 2.171875 -19.09375 C 2.578125 -19.445312 3.226562 -19.625 4.125 -19.625 C 5.019531 -19.625 5.671875 -19.441406 6.078125 -19.078125 C 6.492188 -18.722656 6.703125 -18.191406 6.703125 -17.484375 C 6.703125 -16.066406 5.84375 -15.359375 4.125 -15.359375 C 2.414062 -15.359375 1.5625 -16.066406 1.5625 -17.484375 Z M 1.5625 -17.484375 "/></g></g></g><g fill="#ffffff" fill-opacity="1"><g transform="translate(243.946315, 100.543086)"><g><path d="M 12.1875 0 L 0.609375 0 L 0.609375 -2.75 L 6.390625 -10.296875 L 0.9375 -10.296875 L 0.9375 -14 L 11.921875 -14 L 11.921875 -11 L 6.375 -3.6875 L 12.1875 -3.6875 Z M 12.1875 0 "/></g></g></g><g fill="#ffffff" fill-opacity="1"><g transform="translate(256.756618, 100.543086)"><g><path d="M 10.796875 0 L 9.875 -1.859375 L 9.765625 -1.859375 C 9.117188 -1.046875 8.457031 -0.488281 7.78125 -0.1875 C 7.101562 0.101562 6.226562 0.25 5.15625 0.25 C 3.84375 0.25 2.804688 -0.144531 2.046875 -0.9375 C 1.285156 -1.726562 0.90625 -2.84375 0.90625 -4.28125 C 0.90625 -5.769531 1.425781 -6.878906 2.46875 -7.609375 C 3.507812 -8.335938 5.015625 -8.742188 6.984375 -8.828125 L 9.3125 -8.90625 L 9.3125 -9.109375 C 9.3125 -10.253906 8.742188 -10.828125 7.609375 -10.828125 C 6.585938 -10.828125 5.289062 -10.484375 3.71875 -9.796875 L 2.328125 -12.984375 C 3.953125 -13.816406 6.007812 -14.234375 8.5 -14.234375 C 10.289062 -14.234375 11.675781 -13.789062 12.65625 -12.90625 C 13.644531 -12.019531 14.140625 -10.773438 14.140625 -9.171875 L 14.140625 0 Z M 7.21875 -3.15625 C 7.800781 -3.15625 8.300781 -3.34375 8.71875 -3.71875 C 9.132812 -4.09375 9.34375 -4.570312 9.34375 -5.15625 L 9.34375 -6.25 L 8.21875 -6.203125 C 6.632812 -6.140625 5.84375 -5.554688 5.84375 -4.453125 C 5.84375 -3.585938 6.300781 -3.15625 7.21875 -3.15625 Z M 7.21875 -3.15625 "/></g></g></g><g fill="#ffffff" fill-opacity="1"><g transform="translate(272.504159, 100.543086)"><g><path d="M 8.515625 -3.5625 C 9.171875 -3.5625 9.953125 -3.722656 10.859375 -4.046875 L 10.859375 -0.53125 C 10.203125 -0.25 9.578125 -0.0507812 8.984375 0.0625 C 8.398438 0.1875 7.710938 0.25 6.921875 0.25 C 5.304688 0.25 4.140625 -0.144531 3.421875 -0.9375 C 2.703125 -1.738281 2.34375 -2.960938 2.34375 -4.609375 L 2.34375 -10.375 L 0.65625 -10.375 L 0.65625 -12.34375 L 2.796875 -13.859375 L 4.046875 -16.796875 L 7.21875 -16.796875 L 7.21875 -14 L 10.640625 -14 L 10.640625 -10.375 L 7.21875 -10.375 L 7.21875 -4.921875 C 7.21875 -4.015625 7.648438 -3.5625 8.515625 -3.5625 Z M 8.515625 -3.5625 "/></g></g></g><g fill="#ffffff" fill-opacity="1"><g transform="translate(284.129695, 100.543086)"><g><path d="M 6.515625 0 L 1.6875 0 L 1.6875 -14 L 6.515625 -14 Z M 1.5625 -17.484375 C 1.5625 -18.203125 1.765625 -18.738281 2.171875 -19.09375 C 2.578125 -19.445312 3.226562 -19.625 4.125 -19.625 C 5.019531 -19.625 5.671875 -19.441406 6.078125 -19.078125 C 6.492188 -18.722656 6.703125 -18.191406 6.703125 -17.484375 C 6.703125 -16.066406 5.84375 -15.359375 4.125 -15.359375 C 2.414062 -15.359375 1.5625 -16.066406 1.5625 -17.484375 Z M 1.5625 -17.484375 "/></g></g></g><g fill="#ffffff" fill-opacity="1"><g transform="translate(292.349023, 100.543086)"><g><path d="M 15.03125 -7.03125 C 15.03125 -4.738281 14.414062 -2.953125 13.1875 -1.671875 C 11.957031 -0.390625 10.234375 0.25 8.015625 0.25 C 5.890625 0.25 4.195312 -0.40625 2.9375 -1.71875 C 1.6875 -3.03125 1.0625 -4.800781 1.0625 -7.03125 C 1.0625 -9.3125 1.675781 -11.082031 2.90625 -12.34375 C 4.132812 -13.601562 5.863281 -14.234375 8.09375 -14.234375 C 9.46875 -14.234375 10.679688 -13.941406 11.734375 -13.359375 C 12.785156 -12.773438 13.597656 -11.9375 14.171875 -10.84375 C 14.742188 -9.757812 15.03125 -8.488281 15.03125 -7.03125 Z M 5.96875 -7.03125 C 5.96875 -5.820312 6.125 -4.898438 6.4375 -4.265625 C 6.757812 -3.640625 7.300781 -3.328125 8.0625 -3.328125 C 8.8125 -3.328125 9.335938 -3.640625 9.640625 -4.265625 C 9.953125 -4.898438 10.109375 -5.820312 10.109375 -7.03125 C 10.109375 -8.21875 9.953125 -9.113281 9.640625 -9.71875 C 9.328125 -10.332031 8.796875 -10.640625 8.046875 -10.640625 C 7.296875 -10.640625 6.757812 -10.335938 6.4375 -9.734375 C 6.125 -9.128906 5.96875 -8.226562 5.96875 -7.03125 Z M 5.96875 -7.03125 "/></g></g></g><g fill="#ffffff" fill-opacity="1"><g transform="translate(308.454462, 100.543086)"><g><path d="M 10.5 0 L 10.5 -7.640625 C 10.5 -8.566406 10.363281 -9.265625 10.09375 -9.734375 C 9.832031 -10.210938 9.40625 -10.453125 8.8125 -10.453125 C 7.988281 -10.453125 7.394531 -10.125 7.03125 -9.46875 C 6.675781 -8.820312 6.5 -7.707031 6.5 -6.125 L 6.5 0 L 1.671875 0 L 1.671875 -14 L 5.3125 -14 L 5.921875 -12.265625 L 6.203125 -12.265625 C 6.609375 -12.921875 7.175781 -13.410156 7.90625 -13.734375 C 8.632812 -14.066406 9.472656 -14.234375 10.421875 -14.234375 C 11.972656 -14.234375 13.175781 -13.785156 14.03125 -12.890625 C 14.894531 -11.992188 15.328125 -10.734375 15.328125 -9.109375 L 15.328125 0 Z M 10.5 0 "/></g></g></g><g fill="#ffffff" fill-opacity="1"><g transform="translate(325.38074, 100.543086)"><g/></g></g><g fill="#ffffff" fill-opacity="1"><g transform="translate(149.880675, 135.003304)"><g><path d="M 13.03125 0 L 12.140625 -3.390625 L 6.28125 -3.390625 L 5.359375 0 L 0 0 L 5.890625 -18.125 L 12.40625 -18.125 L 18.375 0 Z M 11.125 -7.390625 L 10.34375 -10.34375 C 10.164062 -11.007812 9.945312 -11.863281 9.6875 -12.90625 C 9.425781 -13.945312 9.253906 -14.695312 9.171875 -15.15625 C 9.097656 -14.738281 8.953125 -14.046875 8.734375 -13.078125 C 8.515625 -12.117188 8.03125 -10.222656 7.28125 -7.390625 Z M 11.125 -7.390625 "/></g></g></g><g fill="#ffffff" fill-opacity="1"><g transform="translate(168.232237, 135.003304)"><g><path d="M 10.5 0 L 10.5 -7.640625 C 10.5 -8.566406 10.363281 -9.265625 10.09375 -9.734375 C 9.832031 -10.210938 9.40625 -10.453125 8.8125 -10.453125 C 7.988281 -10.453125 7.394531 -10.125 7.03125 -9.46875 C 6.675781 -8.820312 6.5 -7.707031 6.5 -6.125 L 6.5 0 L 1.671875 0 L 1.671875 -14 L 5.3125 -14 L 5.921875 -12.265625 L 6.203125 -12.265625 C 6.609375 -12.921875 7.175781 -13.410156 7.90625 -13.734375 C 8.632812 -14.066406 9.472656 -14.234375 10.421875 -14.234375 C 11.972656 -14.234375 13.175781 -13.785156 14.03125 -12.890625 C 14.894531 -11.992188 15.328125 -10.734375 15.328125 -9.109375 L 15.328125 0 Z M 10.5 0 "/></g></g></g><g fill="#ffffff" fill-opacity="1"><g transform="translate(185.164546, 135.003304)"><g><path d="M 6.015625 0.25 C 5.015625 0.25 4.140625 -0.03125 3.390625 -0.59375 C 2.648438 -1.164062 2.078125 -2.003906 1.671875 -3.109375 C 1.265625 -4.210938 1.0625 -5.503906 1.0625 -6.984375 C 1.0625 -9.253906 1.515625 -11.03125 2.421875 -12.3125 C 3.335938 -13.59375 4.597656 -14.234375 6.203125 -14.234375 C 6.984375 -14.234375 7.664062 -14.078125 8.25 -13.765625 C 8.84375 -13.453125 9.382812 -12.925781 9.875 -12.1875 L 9.96875 -12.1875 C 9.8125 -13.28125 9.734375 -14.378906 9.734375 -15.484375 L 9.734375 -19.21875 L 14.59375 -19.21875 L 14.59375 0 L 10.953125 0 L 9.921875 -1.765625 L 9.734375 -1.765625 C 8.898438 -0.421875 7.660156 0.25 6.015625 0.25 Z M 7.984375 -3.5625 C 8.765625 -3.5625 9.3125 -3.804688 9.625 -4.296875 C 9.945312 -4.785156 10.117188 -5.535156 10.140625 -6.546875 L 10.140625 -6.921875 C 10.140625 -8.160156 9.960938 -9.039062 9.609375 -9.5625 C 9.253906 -10.082031 8.695312 -10.34375 7.9375 -10.34375 C 7.300781 -10.34375 6.804688 -10.046875 6.453125 -9.453125 C 6.109375 -8.859375 5.9375 -8.007812 5.9375 -6.90625 C 5.9375 -5.820312 6.113281 -4.992188 6.46875 -4.421875 C 6.820312 -3.847656 7.328125 -3.5625 7.984375 -3.5625 Z M 7.984375 -3.5625 "/></g></g></g><g fill="#ffffff" fill-opacity="1"><g transform="translate(201.418081, 135.003304)"><g/></g></g><g fill="#ffffff" fill-opacity="1"><g transform="translate(207.98367, 135.003304)"><g><path d="M 13.765625 -5.484375 C 13.765625 -4.359375 13.476562 -3.363281 12.90625 -2.5 C 12.34375 -1.632812 11.523438 -0.957031 10.453125 -0.46875 C 9.378906 0.0078125 8.125 0.25 6.6875 0.25 C 5.476562 0.25 4.46875 0.164062 3.65625 0 C 2.84375 -0.175781 1.992188 -0.472656 1.109375 -0.890625 L 1.109375 -5.234375 C 2.035156 -4.753906 3 -4.378906 4 -4.109375 C 5.007812 -3.847656 5.9375 -3.71875 6.78125 -3.71875 C 7.507812 -3.71875 8.039062 -3.84375 8.375 -4.09375 C 8.707031 -4.34375 8.875 -4.664062 8.875 -5.0625 C 8.875 -5.3125 8.804688 -5.523438 8.671875 -5.703125 C 8.535156 -5.890625 8.316406 -6.078125 8.015625 -6.265625 C 7.722656 -6.460938 6.925781 -6.851562 5.625 -7.4375 C 4.445312 -7.96875 3.5625 -8.484375 2.96875 -8.984375 C 2.382812 -9.492188 1.945312 -10.070312 1.65625 -10.71875 C 1.375 -11.375 1.234375 -12.144531 1.234375 -13.03125 C 1.234375 -14.695312 1.835938 -15.992188 3.046875 -16.921875 C 4.253906 -17.847656 5.921875 -18.3125 8.046875 -18.3125 C 9.910156 -18.3125 11.816406 -17.878906 13.765625 -17.015625 L 12.265625 -13.25 C 10.578125 -14.03125 9.117188 -14.421875 7.890625 -14.421875 C 7.253906 -14.421875 6.789062 -14.304688 6.5 -14.078125 C 6.21875 -13.859375 6.078125 -13.582031 6.078125 -13.25 C 6.078125 -12.894531 6.257812 -12.578125 6.625 -12.296875 C 6.988281 -12.015625 7.984375 -11.503906 9.609375 -10.765625 C 11.160156 -10.066406 12.238281 -9.316406 12.84375 -8.515625 C 13.457031 -7.710938 13.765625 -6.703125 13.765625 -5.484375 Z M 13.765625 -5.484375 "/></g></g></g><g fill="#ffffff" fill-opacity="1"><g transform="translate(222.571126, 135.003304)"><g><path d="M 8.515625 -3.5625 C 9.171875 -3.5625 9.953125 -3.722656 10.859375 -4.046875 L 10.859375 -0.53125 C 10.203125 -0.25 9.578125 -0.0507812 8.984375 0.0625 C 8.398438 0.1875 7.710938 0.25 6.921875 0.25 C 5.304688 0.25 4.140625 -0.144531 3.421875 -0.9375 C 2.703125 -1.738281 2.34375 -2.960938 2.34375 -4.609375 L 2.34375 -10.375 L 0.65625 -10.375 L 0.65625 -12.34375 L 2.796875 -13.859375 L 4.046875 -16.796875 L 7.21875 -16.796875 L 7.21875 -14 L 10.640625 -14 L 10.640625 -10.375 L 7.21875 -10.375 L 7.21875 -4.921875 C 7.21875 -4.015625 7.648438 -3.5625 8.515625 -3.5625 Z M 8.515625 -3.5625 "/></g></g></g><g fill="#ffffff" fill-opacity="1"><g transform="translate(234.196662, 135.003304)"><g><path d="M 10.796875 0 L 9.875 -1.859375 L 9.765625 -1.859375 C 9.117188 -1.046875 8.457031 -0.488281 7.78125 -0.1875 C 7.101562 0.101562 6.226562 0.25 5.15625 0.25 C 3.84375 0.25 2.804688 -0.144531 2.046875 -0.9375 C 1.285156 -1.726562 0.90625 -2.84375 0.90625 -4.28125 C 0.90625 -5.769531 1.425781 -6.878906 2.46875 -7.609375 C 3.507812 -8.335938 5.015625 -8.742188 6.984375 -8.828125 L 9.3125 -8.90625 L 9.3125 -9.109375 C 9.3125 -10.253906 8.742188 -10.828125 7.609375 -10.828125 C 6.585938 -10.828125 5.289062 -10.484375 3.71875 -9.796875 L 2.328125 -12.984375 C 3.953125 -13.816406 6.007812 -14.234375 8.5 -14.234375 C 10.289062 -14.234375 11.675781 -13.789062 12.65625 -12.90625 C 13.644531 -12.019531 14.140625 -10.773438 14.140625 -9.171875 L 14.140625 0 Z M 7.21875 -3.15625 C 7.800781 -3.15625 8.300781 -3.34375 8.71875 -3.71875 C 9.132812 -4.09375 9.34375 -4.570312 9.34375 -5.15625 L 9.34375 -6.25 L 8.21875 -6.203125 C 6.632812 -6.140625 5.84375 -5.554688 5.84375 -4.453125 C 5.84375 -3.585938 6.300781 -3.15625 7.21875 -3.15625 Z M 7.21875 -3.15625 "/></g></g></g><g fill="#ffffff" fill-opacity="1"><g transform="translate(249.944203, 135.003304)"><g><path d="M 8.515625 -3.5625 C 9.171875 -3.5625 9.953125 -3.722656 10.859375 -4.046875 L 10.859375 -0.53125 C 10.203125 -0.25 9.578125 -0.0507812 8.984375 0.0625 C 8.398438 0.1875 7.710938 0.25 6.921875 0.25 C 5.304688 0.25 4.140625 -0.144531 3.421875 -0.9375 C 2.703125 -1.738281 2.34375 -2.960938 2.34375 -4.609375 L 2.34375 -10.375 L 0.65625 -10.375 L 0.65625 -12.34375 L 2.796875 -13.859375 L 4.046875 -16.796875 L 7.21875 -16.796875 L 7.21875 -14 L 10.640625 -14 L 10.640625 -10.375 L 7.21875 -10.375 L 7.21875 -4.921875 C 7.21875 -4.015625 7.648438 -3.5625 8.515625 -3.5625 Z M 8.515625 -3.5625 "/></g></g></g><g fill="#ffffff" fill-opacity="1"><g transform="translate(261.569738, 135.003304)"><g><path d="M 6.515625 0 L 1.6875 0 L 1.6875 -14 L 6.515625 -14 Z M 1.5625 -17.484375 C 1.5625 -18.203125 1.765625 -18.738281 2.171875 -19.09375 C 2.578125 -19.445312 3.226562 -19.625 4.125 -19.625 C 5.019531 -19.625 5.671875 -19.441406 6.078125 -19.078125 C 6.492188 -18.722656 6.703125 -18.191406 6.703125 -17.484375 C 6.703125 -16.066406 5.84375 -15.359375 4.125 -15.359375 C 2.414062 -15.359375 1.5625 -16.066406 1.5625 -17.484375 Z M 1.5625 -17.484375 "/></g></g></g><g fill="#ffffff" fill-opacity="1"><g transform="translate(269.789066, 135.003304)"><g><path d="M 12.46875 -4.296875 C 12.46875 -2.796875 11.957031 -1.660156 10.9375 -0.890625 C 9.914062 -0.128906 8.453125 0.25 6.546875 0.25 C 5.503906 0.25 4.597656 0.191406 3.828125 0.078125 C 3.066406 -0.0351562 2.289062 -0.238281 1.5 -0.53125 L 1.5 -4.390625 C 2.25 -4.066406 3.066406 -3.796875 3.953125 -3.578125 C 4.847656 -3.367188 5.644531 -3.265625 6.34375 -3.265625 C 7.394531 -3.265625 7.921875 -3.503906 7.921875 -3.984375 C 7.921875 -4.222656 7.773438 -4.4375 7.484375 -4.625 C 7.191406 -4.820312 6.335938 -5.203125 4.921875 -5.765625 C 3.640625 -6.296875 2.742188 -6.894531 2.234375 -7.5625 C 1.722656 -8.238281 1.46875 -9.085938 1.46875 -10.109375 C 1.46875 -11.410156 1.96875 -12.421875 2.96875 -13.140625 C 3.976562 -13.867188 5.398438 -14.234375 7.234375 -14.234375 C 8.160156 -14.234375 9.03125 -14.132812 9.84375 -13.9375 C 10.65625 -13.738281 11.492188 -13.445312 12.359375 -13.0625 L 11.0625 -9.9375 C 10.414062 -10.226562 9.734375 -10.472656 9.015625 -10.671875 C 8.296875 -10.878906 7.710938 -10.984375 7.265625 -10.984375 C 6.472656 -10.984375 6.078125 -10.789062 6.078125 -10.40625 C 6.078125 -10.164062 6.210938 -9.957031 6.484375 -9.78125 C 6.765625 -9.613281 7.5625 -9.269531 8.875 -8.75 C 9.851562 -8.351562 10.582031 -7.957031 11.0625 -7.5625 C 11.550781 -7.175781 11.90625 -6.722656 12.125 -6.203125 C 12.351562 -5.679688 12.46875 -5.046875 12.46875 -4.296875 Z M 12.46875 -4.296875 "/></g></g></g><g fill="#ffffff" fill-opacity="1"><g transform="translate(283.265802, 135.003304)"><g><path d="M 8.515625 -3.5625 C 9.171875 -3.5625 9.953125 -3.722656 10.859375 -4.046875 L 10.859375 -0.53125 C 10.203125 -0.25 9.578125 -0.0507812 8.984375 0.0625 C 8.398438 0.1875 7.710938 0.25 6.921875 0.25 C 5.304688 0.25 4.140625 -0.144531 3.421875 -0.9375 C 2.703125 -1.738281 2.34375 -2.960938 2.34375 -4.609375 L 2.34375 -10.375 L 0.65625 -10.375 L 0.65625 -12.34375 L 2.796875 -13.859375 L 4.046875 -16.796875 L 7.21875 -16.796875 L 7.21875 -14 L 10.640625 -14 L 10.640625 -10.375 L 7.21875 -10.375 L 7.21875 -4.921875 C 7.21875 -4.015625 7.648438 -3.5625 8.515625 -3.5625 Z M 8.515625 -3.5625 "/></g></g></g><g fill="#ffffff" fill-opacity="1"><g transform="translate(294.891337, 135.003304)"><g><path d="M 6.515625 0 L 1.6875 0 L 1.6875 -14 L 6.515625 -14 Z M 1.5625 -17.484375 C 1.5625 -18.203125 1.765625 -18.738281 2.171875 -19.09375 C 2.578125 -19.445312 3.226562 -19.625 4.125 -19.625 C 5.019531 -19.625 5.671875 -19.441406 6.078125 -19.078125 C 6.492188 -18.722656 6.703125 -18.191406 6.703125 -17.484375 C 6.703125 -16.066406 5.84375 -15.359375 4.125 -15.359375 C 2.414062 -15.359375 1.5625 -16.066406 1.5625 -17.484375 Z M 1.5625 -17.484375 "/></g></g></g><g fill="#ffffff" fill-opacity="1"><g transform="translate(303.110665, 135.003304)"><g><path d="M 8.046875 0.25 C 5.753906 0.25 4.015625 -0.363281 2.828125 -1.59375 C 1.648438 -2.832031 1.0625 -4.609375 1.0625 -6.921875 C 1.0625 -9.242188 1.695312 -11.039062 2.96875 -12.3125 C 4.25 -13.59375 6.066406 -14.234375 8.421875 -14.234375 C 10.046875 -14.234375 11.570312 -13.878906 13 -13.171875 L 11.59375 -9.609375 C 11 -9.867188 10.457031 -10.070312 9.96875 -10.21875 C 9.476562 -10.375 8.960938 -10.453125 8.421875 -10.453125 C 7.640625 -10.453125 7.035156 -10.144531 6.609375 -9.53125 C 6.179688 -8.925781 5.96875 -8.066406 5.96875 -6.953125 C 5.96875 -4.710938 6.796875 -3.59375 8.453125 -3.59375 C 9.867188 -3.59375 11.226562 -4.003906 12.53125 -4.828125 L 12.53125 -0.984375 C 11.28125 -0.160156 9.785156 0.25 8.046875 0.25 Z M 8.046875 0.25 "/></g></g></g><g fill="#ffffff" fill-opacity="1"><g transform="translate(316.735497, 135.003304)"><g><path d="M 12.46875 -4.296875 C 12.46875 -2.796875 11.957031 -1.660156 10.9375 -0.890625 C 9.914062 -0.128906 8.453125 0.25 6.546875 0.25 C 5.503906 0.25 4.597656 0.191406 3.828125 0.078125 C 3.066406 -0.0351562 2.289062 -0.238281 1.5 -0.53125 L 1.5 -4.390625 C 2.25 -4.066406 3.066406 -3.796875 3.953125 -3.578125 C 4.847656 -3.367188 5.644531 -3.265625 6.34375 -3.265625 C 7.394531 -3.265625 7.921875 -3.503906 7.921875 -3.984375 C 7.921875 -4.222656 7.773438 -4.4375 7.484375 -4.625 C 7.191406 -4.820312 6.335938 -5.203125 4.921875 -5.765625 C 3.640625 -6.296875 2.742188 -6.894531 2.234375 -7.5625 C 1.722656 -8.238281 1.46875 -9.085938 1.46875 -10.109375 C 1.46875 -11.410156 1.96875 -12.421875 2.96875 -13.140625 C 3.976562 -13.867188 5.398438 -14.234375 7.234375 -14.234375 C 8.160156 -14.234375 9.03125 -14.132812 9.84375 -13.9375 C 10.65625 -13.738281 11.492188 -13.445312 12.359375 -13.0625 L 11.0625 -9.9375 C 10.414062 -10.226562 9.734375 -10.472656 9.015625 -10.671875 C 8.296875 -10.878906 7.710938 -10.984375 7.265625 -10.984375 C 6.472656 -10.984375 6.078125 -10.789062 6.078125 -10.40625 C 6.078125 -10.164062 6.210938 -9.957031 6.484375 -9.78125 C 6.765625 -9.613281 7.5625 -9.269531 8.875 -8.75 C 9.851562 -8.351562 10.582031 -7.957031 11.0625 -7.5625 C 11.550781 -7.175781 11.90625 -6.722656 12.125 -6.203125 C 12.351562 -5.679688 12.46875 -5.046875 12.46875 -4.296875 Z M 12.46875 -4.296875 "/></g></g></g><path stroke-linecap="butt" transform="matrix(0.000000000000000046, 0.748612, -0.748005, 0.000000000000000046, 140.028509, 43.05121)" fill="none" stroke-linejoin="miter" d="M -0.0005724 2.00167 L 134.894946 2.00167 " stroke="#ffffff" stroke-width="4" stroke-opacity="1" stroke-miterlimit="4"/></svg>